<svg xmlns="http://www.w3.org/2000/svg" xmlns:xlink="http://www.w3.org/1999/xlink" width="500" zoomAndPan="magnify" viewBox="0 0 375 374.999991" height="500" preserveAspectRatio="xMidYMid meet" version="1.2"><defs/><g id="4119075fed"><rect x="0" width="375" y="0" height="374.999991" style="fill:#ffffff;fill-opacity:1;stroke:none;"/><rect x="0" width="375" y="0" height="374.999991" style="fill:#000000;fill-opacity:1;stroke:none;"/><g style="fill:#ffffff;fill-opacity:1;"><g transform="translate(25.089784, 316.132609)"><path style="stroke:none" d="M -12 -227.09375 C -10.601562 -227.09375 -8.101562 -227.09375 -4.5 -227.09375 C -0.894531 -227.09375 4.003906 -226.492188 10.203125 -225.296875 C 16.398438 -224.097656 22.148438 -222.347656 27.453125 -220.046875 C 32.753906 -217.742188 37.953125 -214.441406 43.046875 -210.140625 C 48.148438 -205.847656 52.5 -201.847656 56.09375 -198.140625 C 59.695312 -194.441406 63.347656 -189.59375 67.046875 -183.59375 C 70.742188 -177.59375 73.742188 -172.492188 76.046875 -168.296875 C 78.347656 -164.097656 80.898438 -158.597656 83.703125 -151.796875 C 87.296875 -143.203125 90.191406 -135.753906 92.390625 -129.453125 C 94.597656 -123.148438 95.800781 -119.695312 96 -119.09375 C 96.195312 -118.5 96.5 -117.800781 96.90625 -117 C 97.5 -115.394531 98 -113.992188 98.40625 -112.796875 C 99 -114.203125 100.394531 -117.90625 102.59375 -123.90625 C 104.800781 -129.90625 106.851562 -135.300781 108.75 -140.09375 C 110.644531 -144.894531 113.59375 -151.695312 117.59375 -160.5 C 121.59375 -169.300781 125.242188 -176.25 128.546875 -181.34375 C 131.847656 -186.445312 136.097656 -192.296875 141.296875 -198.890625 C 146.492188 -205.492188 151.695312 -210.597656 156.90625 -214.203125 C 169.695312 -222.796875 183.296875 -227.09375 197.703125 -227.09375 L 197.703125 -224.09375 C 186.503906 -224.09375 175.050781 -218.191406 163.34375 -206.390625 C 151.644531 -194.597656 141.644531 -180.347656 133.34375 -163.640625 C 125.050781 -146.941406 118.253906 -129.644531 112.953125 -111.75 C 107.648438 -93.851562 105 -78.601562 105 -66 L 105 -21.90625 C 105 -14.695312 108.097656 -9.296875 114.296875 -5.703125 C 117.296875 -3.898438 120.597656 -3 124.203125 -3 L 127.796875 -3 L 127.796875 0 L 62.40625 0 L 62.40625 -3 L 66.296875 -3 C 71.296875 -3 75.695312 -4.796875 79.5 -8.390625 C 83.300781 -11.992188 85.300781 -16.394531 85.5 -21.59375 L 85.5 -66.296875 C 85.5 -79.703125 82.695312 -95.40625 77.09375 -113.40625 C 71.5 -131.40625 64.300781 -148.65625 55.5 -165.15625 C 46.695312 -181.65625 36.195312 -195.601562 24 -207 C 11.800781 -218.394531 -0.195312 -224.09375 -12 -224.09375 Z M -12 -227.09375 "/></g></g><g style="fill:#ffffff;fill-opacity:1;"><g transform="translate(100.933306, 307.828447)"><path style="stroke:none" d="M 211.046875 -244 C 217.222656 -248.175781 224.578125 -251.441406 233.109375 -253.796875 C 241.640625 -256.160156 248.535156 -257.34375 253.796875 -257.34375 C 259.066406 -257.34375 262.425781 -257.34375 263.875 -257.34375 L 263.875 -254.625 C 255.34375 -254.257812 247.351562 -252.578125 239.90625 -249.578125 C 232.46875 -246.585938 226.34375 -243.140625 221.53125 -239.234375 C 216.71875 -235.335938 212.039062 -230.164062 207.5 -223.71875 C 202.96875 -217.269531 199.472656 -211.773438 197.015625 -207.234375 C 194.566406 -202.703125 191.707031 -196.894531 188.4375 -189.8125 L 112.734375 -24.234375 C 106.015625 -9.523438 102.65625 -0.175781 102.65625 3.8125 L 100.203125 3.8125 L 23.6875 -170.75 C 21.144531 -176.5625 17.648438 -180.875 13.203125 -183.6875 C 8.753906 -186.5 4.257812 -187.90625 -0.28125 -187.90625 L -2.453125 -187.90625 L -2.453125 -190.625 L 58.8125 -190.625 L 58.8125 -187.90625 L 56.359375 -187.90625 C 50.921875 -187.90625 47.289062 -185.363281 45.46875 -180.28125 C 45.101562 -179.1875 44.921875 -177.914062 44.921875 -176.46875 C 44.921875 -175.019531 45.378906 -173.203125 46.296875 -171.015625 L 103.203125 -28.328125 L 170.75 -189.8125 C 181.457031 -215.050781 194.890625 -233.113281 211.046875 -244 Z M 211.046875 -244 "/></g></g></g></svg>