<svg xmlns="http://www.w3.org/2000/svg" xmlns:xlink="http://www.w3.org/1999/xlink" width="500" zoomAndPan="magnify" viewBox="0 0 375 374.999991" height="500" preserveAspectRatio="xMidYMid meet" version="1.2"><defs><clipPath id="c0dff49fe1"><path d="M 9 29 L 263 29 L 263 356 L 9 356 Z M 9 29 "/></clipPath><clipPath id="9c9ecc62bb"><path d="M -51.777344 106.773438 L 130.332031 29.054688 L 262.21875 338.089844 L 80.109375 415.808594 Z M -51.777344 106.773438 "/></clipPath><clipPath id="9ecf8c0ba7"><path d="M -51.777344 106.773438 L 275.882812 -33.058594 L 407.765625 275.976562 L 80.109375 415.808594 Z M -51.777344 106.773438 "/></clipPath><clipPath id="ff478484b5"><path d="M -51.777344 106.773438 L 275.882812 -33.058594 L 407.765625 275.976562 L 80.109375 415.808594 Z M -51.777344 106.773438 "/></clipPath><clipPath id="e1d4f894b0"><path d="M 107 19 L 366 19 L 366 349 L 107 349 Z M 107 19 "/></clipPath><clipPath id="1cbe82df02"><path d="M 426.769531 268.222656 L 239.140625 348.292969 L 107.257812 39.261719 L 294.882812 -40.8125 Z M 426.769531 268.222656 "/></clipPath><clipPath id="771dff8255"><path d="M 426.769531 268.222656 L 99.109375 408.054688 L -32.773438 99.019531 L 294.882812 -40.8125 Z M 426.769531 268.222656 "/></clipPath><clipPath id="1289ec0964"><path d="M 426.769531 268.222656 L 99.109375 408.054688 L -32.773438 99.019531 L 294.882812 -40.8125 Z M 426.769531 268.222656 "/></clipPath></defs><g id="1a0746cc47"><rect x="0" width="375" y="0" height="374.999991" style="fill:#ffffff;fill-opacity:1;stroke:none;"/><rect x="0" width="375" y="0" height="374.999991" style="fill:#ffffff;fill-opacity:1;stroke:none;"/><g clip-rule="nonzero" clip-path="url(#c0dff49fe1)"><g clip-rule="nonzero" clip-path="url(#9c9ecc62bb)"><g clip-rule="nonzero" clip-path="url(#9ecf8c0ba7)"><g clip-rule="nonzero" clip-path="url(#ff478484b5)"><path style=" stroke:none;fill-rule:nonzero;fill:#000000;fill-opacity:1;" d="M 341.800781 121.46875 C 350.699219 142.316406 355.246094 164.285156 355.316406 186.765625 C 355.382812 208.480469 351.292969 229.753906 343.15625 249.988281 C 335.015625 270.226562 323.25 288.417969 308.171875 304.046875 C 292.558594 320.230469 274.0625 332.949219 253.207031 341.851562 C 222.65625 354.890625 189.316406 358.59375 156.796875 352.574219 C 125.082031 346.699219 95.910156 331.984375 72.425781 310.023438 C 71.917969 309.546875 71.890625 308.753906 72.363281 308.246094 C 72.839844 307.738281 73.632812 307.710938 74.140625 308.183594 C 122.019531 352.96875 191.921875 365.273438 252.222656 339.539062 C 336.140625 303.726562 375.289062 206.339844 339.488281 122.453125 C 303.691406 38.566406 206.289062 -0.542969 122.371094 35.269531 C 52.746094 64.984375 12.175781 137.894531 23.710938 212.578125 C 23.816406 213.265625 23.34375 213.90625 22.660156 214.011719 C 21.972656 214.117188 21.335938 213.648438 21.226562 212.960938 C 18.40625 194.695312 18.640625 176.179688 21.914062 157.925781 C 25.136719 139.972656 31.214844 122.75 39.980469 106.738281 C 48.832031 90.5625 60.179688 76.066406 73.710938 63.652344 C 87.710938 50.8125 103.75 40.484375 121.382812 32.957031 C 142.238281 24.058594 164.21875 19.503906 186.703125 19.429688 C 208.421875 19.355469 229.699219 23.4375 249.941406 31.570312 C 270.179688 39.699219 288.371094 51.460938 304.003906 66.53125 C 320.183594 82.136719 332.902344 100.621094 341.800781 121.46875 Z M 62.703125 296.421875 C 63.175781 296.964844 63.675781 297.507812 63.703125 298.292969 C 63.71875 298.785156 63.582031 299.203125 63.105469 299.421875 C 62.664062 299.625 62.277344 299.476562 61.964844 299.152344 C 61.335938 298.496094 60.742188 297.796875 60.089844 297.160156 C 57.011719 294.121094 53.175781 292.578125 49.0625 291.554688 C 43.863281 290.261719 38.558594 289.316406 33.636719 287.089844 C 28.054688 284.5625 23.609375 280.695312 20.339844 275.503906 C 19.988281 274.949219 19.734375 274.359375 19.621094 273.714844 C 19.386719 272.308594 20.289062 271.511719 21.664062 271.921875 C 21.988281 272.019531 22.308594 272.164062 22.597656 272.335938 C 26.125 274.421875 29.957031 275.773438 33.824219 277.066406 C 38.757812 278.710938 43.363281 281.03125 47.730469 283.851562 C 48.035156 284.042969 48.386719 284.488281 48.714844 284.25 C 49.160156 283.921875 48.710938 283.484375 48.550781 283.140625 C 46.789062 279.371094 45.800781 275.332031 44.414062 271.433594 C 42.617188 266.378906 40.625 261.410156 38.136719 256.652344 C 37.136719 254.734375 36.148438 252.808594 35.210938 250.851562 C 34.949219 250.304688 34.6875 250.070312 34.09375 250.273438 C 29.785156 251.734375 25.910156 250.652344 22.113281 248.457031 C 19.484375 246.9375 16.726562 245.636719 13.855469 244.589844 C 12.417969 244.066406 12.09375 243.363281 12.914062 242.070312 C 13.574219 241.03125 13.335938 240.496094 12.472656 239.738281 C 9.304688 236.953125 9.183594 235.785156 11.621094 232.296875 C 14.054688 228.800781 17.265625 226.046875 20.488281 223.332031 C 21.664062 222.34375 23.054688 221.710938 24.652344 222.949219 C 24.609375 222.734375 24.574219 222.523438 24.527344 222.3125 C 24.082031 220.460938 24.429688 219.707031 26.179688 219.011719 C 27.601562 218.445312 28.933594 217.742188 30.230469 216.933594 C 31.5625 216.097656 33.117188 215.773438 34.613281 215.359375 C 35.730469 215.042969 36.6875 215.539062 37.523438 216.292969 C 38.410156 217.082031 39.132812 218.019531 39.8125 218.980469 C 41.875 221.898438 43.929688 224.816406 44.800781 228.375 C 45.226562 230.113281 45.171875 231.820312 44.804688 233.5625 C 43.785156 238.402344 41.5625 242.671875 38.46875 246.441406 C 37 248.222656 36.882812 249.699219 37.96875 251.648438 C 40.191406 255.628906 42.28125 259.6875 43.980469 263.929688 C 44.074219 264.15625 44.136719 264.53125 44.460938 264.464844 C 44.949219 264.367188 44.738281 263.90625 44.746094 263.605469 C 44.925781 256.464844 47.027344 249.847656 50.21875 243.527344 C 50.683594 242.609375 51.214844 241.726562 51.953125 240.996094 C 52.414062 240.542969 52.972656 240.289062 53.613281 240.582031 C 54.257812 240.875 54.433594 241.449219 54.34375 242.105469 C 54.171875 243.386719 53.992188 244.664062 53.789062 245.9375 C 53.660156 246.746094 53.644531 247.546875 53.972656 248.296875 C 55.890625 252.671875 55.941406 257.308594 55.933594 261.957031 C 55.925781 268.0625 54.703125 274.023438 52.953125 279.785156 C 51.515625 284.527344 53.425781 287.53125 56.523438 290.53125 C 58.574219 292.511719 60.832031 294.265625 62.703125 296.421875 Z M 52.648438 251.324219 C 50.988281 259.015625 52.03125 266.546875 51.882812 274.046875 C 51.925781 274.074219 51.976562 274.101562 52.023438 274.128906 C 52.066406 274.066406 52.121094 274.007812 52.144531 273.941406 C 53.773438 267.492188 54.105469 260.960938 53.429688 254.363281 C 53.332031 253.394531 53.179688 252.410156 52.648438 251.324219 Z M 49.382812 276.019531 C 49.695312 273.625 49.796875 271.550781 49.714844 269.453125 C 49.464844 263.113281 49.269531 256.777344 50.519531 250.496094 C 50.671875 249.75 50.917969 248.960938 50.597656 248.183594 C 50.546875 248.226562 50.484375 248.273438 50.460938 248.328125 C 47.480469 255.128906 46.214844 262.171875 47.421875 269.5625 C 47.777344 271.6875 48.316406 273.785156 49.382812 276.019531 Z M 29.277344 278.21875 C 29.523438 278.539062 29.886719 278.675781 30.242188 278.800781 C 34.484375 280.277344 38.523438 282.234375 42.605469 284.085938 C 43.292969 284.398438 44.019531 284.628906 44.816406 284.929688 C 44.746094 284.410156 44.449219 284.335938 44.238281 284.214844 C 40.796875 282.261719 37.257812 280.511719 33.492188 279.25 C 32.136719 278.792969 30.832031 278.15625 29.378906 278.035156 C 29.355469 278.101562 29.324219 278.164062 29.277344 278.21875 Z M 48.722656 289.140625 C 48.5625 288.691406 48.105469 288.632812 47.753906 288.484375 C 45.308594 287.460938 42.785156 286.613281 40.417969 285.4375 C 35.710938 283.101562 30.714844 281.425781 26.046875 279.007812 C 26.113281 279.46875 26.515625 279.660156 26.808594 279.929688 C 30.46875 283.339844 34.730469 285.660156 39.578125 286.921875 C 42.613281 287.703125 45.617188 288.640625 48.722656 289.140625 Z M 37.085938 223.253906 C 35.789062 224.117188 34.511719 225.003906 33.238281 225.902344 C 32.558594 226.378906 32.078125 226.96875 32.121094 227.886719 C 32.378906 234.035156 33.894531 239.867188 36.554688 245.410156 C 36.628906 245.394531 36.722656 245.398438 36.769531 245.351562 C 36.925781 245.1875 37.082031 245.019531 37.210938 244.835938 C 39.484375 241.617188 41.300781 238.214844 42.40625 234.375 C 43.519531 230.507812 42.519531 227.171875 40.554688 223.96875 C 39.503906 222.257812 38.734375 222.152344 37.085938 223.253906 Z M 27.699219 222.4375 C 28.863281 221.804688 29.972656 221.0625 31.167969 220.492188 C 32.84375 219.695312 33.640625 219.976562 34.53125 221.5625 C 34.773438 221.988281 34.96875 222.152344 35.386719 221.820312 C 36.078125 221.265625 36.863281 220.890625 37.695312 220.617188 C 38.242188 220.4375 38.1875 220.203125 37.925781 219.800781 C 36.300781 217.320312 35.410156 217.035156 32.667969 218.144531 C 32.5625 218.191406 32.460938 218.234375 32.351562 218.28125 C 30.542969 219.148438 28.917969 220.371094 27 221.046875 C 26.195312 221.332031 26.710938 221.976562 26.820312 222.402344 C 27 223.078125 27.433594 222.582031 27.699219 222.4375 Z M 14.394531 238.800781 C 14.496094 238.886719 14.683594 238.949219 14.800781 238.914062 C 15.347656 238.769531 16.207031 236.851562 15.886719 236.398438 C 14.695312 234.726562 15.175781 233.253906 16.371094 231.859375 C 18.25 229.671875 20.328125 227.683594 22.5625 225.851562 C 22.839844 225.621094 23.410156 225.417969 23.027344 224.886719 C 22.671875 224.386719 22.277344 224.792969 21.933594 224.964844 C 21.667969 225.101562 21.421875 225.296875 21.203125 225.507812 C 19.074219 227.503906 16.921875 229.472656 14.851562 231.527344 C 13.855469 232.511719 13.117188 233.730469 12.375 234.921875 C 12.121094 235.335938 11.867188 235.78125 12.097656 236.351562 C 12.746094 237.242188 13.527344 238.066406 14.394531 238.800781 Z M 31.839844 242.664062 C 29.394531 239.484375 26.347656 237.019531 22.769531 235.222656 C 20.945312 234.304688 19.636719 234.507812 18.953125 235.988281 C 17.988281 238.0625 16.84375 240.015625 15.5 241.859375 C 15.109375 242.394531 15.101562 242.710938 15.839844 243.011719 C 18.546875 244.113281 21.171875 245.402344 23.730469 246.8125 C 26.453125 248.316406 29.230469 249.339844 32.421875 248.421875 C 34.714844 247.761719 34.734375 248.316406 33.667969 245.6875 C 33.316406 244.683594 32.601562 243.660156 31.839844 242.664062 Z M 31.839844 239.238281 C 30.730469 235.773438 30.347656 232.367188 29.988281 228.949219 C 29.753906 226.714844 30.363281 224.988281 32.398438 223.878906 C 32.96875 223.566406 33.109375 223.132812 32.78125 222.554688 C 32.40625 221.890625 31.984375 222.328125 31.636719 222.527344 C 28.175781 224.492188 24.691406 226.429688 21.867188 229.3125 C 20.546875 230.660156 19.058594 231.847656 18.015625 233.464844 C 19.882812 232.070312 21.757812 232.324219 23.652344 233.242188 C 25.367188 234.074219 26.984375 235.074219 28.445312 236.292969 C 29.550781 237.203125 30.609375 238.164062 31.839844 239.238281 Z M 31.839844 239.238281 "/></g></g></g></g><g clip-rule="nonzero" clip-path="url(#e1d4f894b0)"><g clip-rule="nonzero" clip-path="url(#1cbe82df02)"><g clip-rule="nonzero" clip-path="url(#771dff8255)"><g clip-rule="nonzero" clip-path="url(#1289ec0964)"><path style=" stroke:none;fill-rule:nonzero;fill:#000000;fill-opacity:1;" d="M 33.191406 253.527344 C 24.292969 232.679688 19.746094 210.707031 19.675781 188.226562 C 19.609375 166.515625 23.699219 145.242188 31.835938 125.003906 C 39.976562 104.769531 51.742188 86.578125 66.820312 70.945312 C 82.433594 54.761719 100.925781 42.042969 121.785156 33.144531 C 152.335938 20.105469 185.671875 16.398438 218.195312 22.421875 C 249.90625 28.296875 279.082031 43.011719 302.566406 64.972656 C 303.074219 65.449219 303.101562 66.242188 302.628906 66.75 C 302.152344 67.257812 301.359375 67.28125 300.851562 66.8125 C 252.972656 22.027344 183.070312 9.722656 122.769531 35.453125 C 38.851562 71.269531 -0.296875 168.65625 35.503906 252.542969 C 71.300781 336.425781 168.703125 375.539062 252.621094 339.726562 C 322.246094 310.011719 362.816406 237.101562 351.28125 162.414062 C 351.171875 161.726562 351.648438 161.089844 352.332031 160.984375 C 353.019531 160.875 353.65625 161.347656 353.765625 162.035156 C 356.585938 180.300781 356.351562 198.816406 353.078125 217.066406 C 349.855469 235.019531 343.777344 252.242188 335.011719 268.257812 C 326.160156 284.433594 314.808594 298.929688 301.28125 311.339844 C 287.28125 324.183594 271.242188 334.511719 253.609375 342.035156 C 232.75 350.9375 210.773438 355.492188 188.285156 355.566406 C 166.570312 355.636719 145.292969 351.554688 125.050781 343.425781 C 104.808594 335.292969 86.621094 323.535156 70.988281 308.464844 C 54.808594 292.859375 42.085938 274.375 33.191406 253.527344 Z M 312.289062 78.570312 C 311.816406 78.03125 311.316406 77.488281 311.289062 76.703125 C 311.273438 76.207031 311.410156 75.789062 311.886719 75.574219 C 312.328125 75.371094 312.714844 75.515625 313.027344 75.84375 C 313.65625 76.5 314.25 77.195312 314.902344 77.835938 C 317.980469 80.875 321.816406 82.417969 325.929688 83.441406 C 331.128906 84.734375 336.433594 85.679688 341.351562 87.902344 C 346.9375 90.433594 351.382812 94.300781 354.652344 99.492188 C 355 100.046875 355.257812 100.636719 355.371094 101.28125 C 355.605469 102.6875 354.703125 103.484375 353.328125 103.070312 C 353.003906 102.972656 352.683594 102.832031 352.394531 102.660156 C 348.863281 100.574219 345.035156 99.222656 341.167969 97.929688 C 336.234375 96.285156 331.628906 93.960938 327.257812 91.144531 C 326.957031 90.949219 326.605469 90.503906 326.277344 90.746094 C 325.832031 91.074219 326.28125 91.511719 326.441406 91.855469 C 328.199219 95.625 329.191406 99.664062 330.578125 103.5625 C 332.375 108.617188 334.367188 113.585938 336.855469 118.34375 C 337.855469 120.261719 338.84375 122.1875 339.78125 124.144531 C 340.042969 124.691406 340.304688 124.925781 340.898438 124.722656 C 345.207031 123.261719 349.078125 124.34375 352.878906 126.539062 C 355.507812 128.058594 358.265625 129.359375 361.136719 130.40625 C 362.574219 130.929688 362.898438 131.632812 362.078125 132.925781 C 361.417969 133.960938 361.65625 134.5 362.519531 135.253906 C 365.6875 138.042969 365.808594 139.210938 363.371094 142.699219 C 360.9375 146.191406 357.726562 148.949219 354.503906 151.660156 C 353.324219 152.652344 351.9375 153.285156 350.339844 152.046875 C 350.378906 152.257812 350.417969 152.472656 350.464844 152.683594 C 350.910156 154.535156 350.5625 155.289062 348.8125 155.984375 C 347.390625 156.550781 346.058594 157.253906 344.761719 158.0625 C 343.429688 158.894531 341.875 159.222656 340.378906 159.636719 C 339.261719 159.949219 338.304688 159.457031 337.46875 158.703125 C 336.582031 157.910156 335.859375 156.976562 335.179688 156.015625 C 333.117188 153.097656 331.0625 150.175781 330.191406 146.621094 C 329.765625 144.882812 329.820312 143.171875 330.1875 141.433594 C 331.207031 136.59375 333.425781 132.324219 336.523438 128.554688 C 337.992188 126.773438 338.105469 125.292969 337.023438 123.347656 C 334.796875 119.367188 332.710938 115.308594 331.011719 111.066406 C 330.917969 110.835938 330.855469 110.464844 330.53125 110.53125 C 330.039062 110.628906 330.253906 111.089844 330.246094 111.386719 C 330.066406 118.53125 327.964844 125.148438 324.773438 131.46875 C 324.308594 132.386719 323.777344 133.265625 323.039062 133.996094 C 322.578125 134.453125 322.019531 134.703125 321.378906 134.414062 C 320.734375 134.121094 320.558594 133.546875 320.648438 132.890625 C 320.820312 131.609375 321 130.332031 321.203125 129.058594 C 321.332031 128.25 321.347656 127.445312 321.019531 126.699219 C 319.101562 122.324219 319.050781 117.6875 319.058594 113.039062 C 319.066406 106.929688 320.289062 100.972656 322.039062 95.207031 C 323.476562 90.46875 321.566406 87.464844 318.46875 84.460938 C 316.417969 82.484375 314.160156 80.726562 312.289062 78.570312 Z M 322.34375 123.671875 C 324.003906 115.980469 322.960938 108.445312 323.109375 100.949219 C 323.066406 100.921875 323.015625 100.890625 322.96875 100.867188 C 322.925781 100.929688 322.871094 100.988281 322.847656 101.054688 C 321.21875 107.5 320.886719 114.035156 321.558594 120.632812 C 321.660156 121.601562 321.8125 122.585938 322.34375 123.671875 Z M 325.609375 98.976562 C 325.296875 101.371094 325.195312 103.445312 325.277344 105.542969 C 325.527344 111.882812 325.722656 118.21875 324.472656 124.496094 C 324.320312 125.246094 324.074219 126.03125 324.394531 126.8125 C 324.445312 126.769531 324.507812 126.722656 324.53125 126.667969 C 327.511719 119.867188 328.777344 112.820312 327.566406 105.433594 C 327.214844 103.308594 326.675781 101.210938 325.609375 98.976562 Z M 345.710938 96.773438 C 345.46875 96.457031 345.105469 96.320312 344.75 96.191406 C 340.507812 94.714844 336.46875 92.761719 332.386719 90.910156 C 331.699219 90.597656 330.972656 90.367188 330.175781 90.066406 C 330.246094 90.585938 330.542969 90.660156 330.75 90.78125 C 334.195312 92.734375 337.734375 94.484375 341.496094 95.746094 C 342.855469 96.199219 344.160156 96.839844 345.613281 96.957031 C 345.636719 96.894531 345.667969 96.828125 345.710938 96.773438 Z M 326.269531 85.855469 C 326.429688 86.304688 326.886719 86.359375 327.234375 86.511719 C 329.679688 87.535156 332.207031 88.382812 334.574219 89.558594 C 339.28125 91.894531 344.277344 93.566406 348.945312 95.988281 C 348.878906 95.527344 348.472656 95.335938 348.183594 95.0625 C 344.519531 91.65625 340.261719 89.335938 335.414062 88.074219 C 332.378906 87.289062 329.375 86.355469 326.269531 85.855469 Z M 337.90625 151.742188 C 339.203125 150.878906 340.480469 149.992188 341.753906 149.09375 C 342.429688 148.617188 342.910156 148.027344 342.871094 147.109375 C 342.609375 140.960938 341.097656 135.128906 338.433594 129.585938 C 338.363281 129.601562 338.265625 129.597656 338.222656 129.644531 C 338.066406 129.804688 337.910156 129.976562 337.777344 130.160156 C 335.507812 133.378906 333.691406 136.78125 332.585938 140.621094 C 331.472656 144.488281 332.472656 147.824219 334.4375 151.027344 C 335.488281 152.738281 336.257812 152.839844 337.90625 151.742188 Z M 347.292969 152.558594 C 346.128906 153.191406 345.019531 153.933594 343.824219 154.503906 C 342.148438 155.300781 341.351562 155.019531 340.460938 153.433594 C 340.21875 153.007812 340.019531 152.84375 339.605469 153.175781 C 338.914062 153.730469 338.128906 154.105469 337.296875 154.378906 C 336.75 154.558594 336.804688 154.792969 337.066406 155.195312 C 338.691406 157.675781 339.582031 157.960938 342.324219 156.851562 C 342.425781 156.804688 342.53125 156.761719 342.640625 156.714844 C 344.449219 155.847656 346.074219 154.625 347.992188 153.949219 C 348.796875 153.664062 348.28125 153.019531 348.171875 152.59375 C 347.992188 151.917969 347.558594 152.414062 347.292969 152.558594 Z M 360.59375 136.195312 C 360.496094 136.109375 360.308594 136.046875 360.191406 136.078125 C 359.644531 136.226562 358.785156 138.140625 359.105469 138.597656 C 360.296875 140.269531 359.816406 141.742188 358.621094 143.132812 C 356.738281 145.324219 354.664062 147.3125 352.429688 149.144531 C 352.148438 149.375 351.582031 149.574219 351.964844 150.109375 C 352.320312 150.605469 352.714844 150.203125 353.058594 150.027344 C 353.324219 149.890625 353.566406 149.695312 353.789062 149.488281 C 355.917969 147.492188 358.066406 145.523438 360.136719 143.46875 C 361.132812 142.484375 361.875 141.265625 362.613281 140.070312 C 362.871094 139.65625 363.121094 139.214844 362.894531 138.640625 C 362.246094 137.753906 361.464844 136.929688 360.59375 136.195312 Z M 343.148438 132.328125 C 345.597656 135.511719 348.644531 137.976562 352.222656 139.773438 C 354.046875 140.691406 355.355469 140.488281 356.039062 139.007812 C 357.003906 136.929688 358.148438 134.980469 359.492188 133.136719 C 359.882812 132.601562 359.890625 132.28125 359.152344 131.984375 C 356.445312 130.878906 353.820312 129.59375 351.257812 128.179688 C 348.535156 126.679688 345.761719 125.65625 342.570312 126.570312 C 340.277344 127.230469 340.257812 126.679688 341.324219 129.308594 C 341.671875 130.308594 342.386719 131.335938 343.148438 132.328125 Z M 343.152344 135.757812 C 344.261719 139.222656 344.644531 142.628906 345.003906 146.042969 C 345.238281 148.28125 344.628906 150.007812 342.589844 151.117188 C 342.023438 151.429688 341.882812 151.859375 342.210938 152.441406 C 342.582031 153.105469 343.007812 152.664062 343.355469 152.46875 C 346.816406 150.503906 350.300781 148.5625 353.125 145.683594 C 354.445312 144.335938 355.933594 143.148438 356.976562 141.53125 C 355.109375 142.925781 353.234375 142.671875 351.339844 141.75 C 349.625 140.921875 348.007812 139.921875 346.542969 138.703125 C 345.441406 137.789062 344.382812 136.828125 343.152344 135.757812 Z M 343.152344 135.757812 "/></g></g></g></g><path style=" stroke:none;fill-rule:nonzero;fill:#ffffff;fill-opacity:1;" d="M 41.402344 83.148438 C 41.015625 82.777344 40.664062 82.371094 40.351562 81.929688 C 40.042969 81.492188 39.777344 81.023438 39.558594 80.53125 C 39.335938 80.039062 39.167969 79.53125 39.046875 79.007812 C 38.925781 78.480469 38.855469 77.949219 38.839844 77.410156 C 38.820312 76.875 38.855469 76.339844 38.941406 75.808594 C 39.03125 75.273438 39.167969 74.757812 39.355469 74.25 C 39.542969 73.746094 39.777344 73.265625 40.058594 72.804688 C 40.339844 72.347656 40.664062 71.917969 41.027344 71.523438 C 46.109375 66.390625 51.414062 61.507812 56.953125 56.878906 C 62.492188 52.246094 68.234375 47.882812 74.179688 43.789062 C 80.128906 39.699219 86.253906 35.894531 92.558594 32.378906 C 98.863281 28.859375 105.320312 25.648438 111.925781 22.738281 C 118.535156 19.828125 125.261719 17.234375 132.113281 14.957031 C 138.964844 12.679688 145.90625 10.726562 152.941406 9.101562 C 159.972656 7.476562 167.070312 6.1875 174.226562 5.226562 C 181.378906 4.269531 188.566406 3.648438 195.777344 3.367188 C 196.316406 3.363281 196.851562 3.414062 197.378906 3.515625 C 197.910156 3.617188 198.421875 3.769531 198.921875 3.972656 C 199.421875 4.175781 199.898438 4.425781 200.347656 4.71875 C 200.796875 5.015625 201.21875 5.351562 201.601562 5.726562 C 201.988281 6.101562 202.332031 6.511719 202.640625 6.957031 C 202.945312 7.398438 203.207031 7.867188 203.417969 8.363281 C 203.632812 8.855469 203.800781 9.367188 203.914062 9.894531 C 204.027344 10.417969 204.09375 10.953125 204.105469 11.492188 L 204.160156 28.769531 C 204.171875 29.320312 204.128906 29.871094 204.035156 30.414062 C 203.9375 30.957031 203.789062 31.488281 203.589844 32 C 203.386719 32.515625 203.136719 33.003906 202.835938 33.46875 C 202.539062 33.933594 202.195312 34.363281 201.808594 34.757812 C 201.425781 35.15625 201.003906 35.507812 200.546875 35.820312 C 200.09375 36.132812 199.609375 36.398438 199.101562 36.613281 C 198.59375 36.828125 198.070312 36.992188 197.527344 37.101562 C 196.988281 37.214844 196.441406 37.269531 195.886719 37.273438 C 189.835938 37.546875 183.8125 38.101562 177.816406 38.933594 C 171.816406 39.765625 165.867188 40.871094 159.972656 42.25 C 154.074219 43.632812 148.253906 45.285156 142.511719 47.203125 C 136.769531 49.121094 131.125 51.300781 125.582031 53.742188 C 120.039062 56.183594 114.621094 58.875 109.328125 61.816406 C 104.035156 64.757812 98.890625 67.9375 93.890625 71.355469 C 88.890625 74.773438 84.058594 78.414062 79.394531 82.277344 C 74.730469 86.144531 70.257812 90.214844 65.96875 94.492188 C 65.597656 94.898438 65.183594 95.261719 64.738281 95.585938 C 64.292969 95.910156 63.816406 96.1875 63.3125 96.417969 C 62.8125 96.648438 62.292969 96.824219 61.753906 96.949219 C 61.214844 97.078125 60.671875 97.148438 60.117188 97.164062 C 59.566406 97.183594 59.019531 97.144531 58.472656 97.050781 C 57.929688 96.957031 57.398438 96.8125 56.882812 96.613281 C 56.367188 96.417969 55.875 96.167969 55.410156 95.871094 C 54.945312 95.574219 54.511719 95.238281 54.113281 94.855469 Z M 41.402344 83.148438 "/><g style="fill:#000000;fill-opacity:1;"><g transform="translate(57.122605, 87.356168)"><path style="stroke:none" d="M 1.390625 -14.59375 L 4.0625 -10.953125 L 6.25 -13.015625 L 7.03125 -12.1875 L 4.734375 -10.015625 L 7.15625 -6.734375 L 6.3125 -5.9375 L 3.890625 -9.234375 L 0.71875 -6.25 L 3.125 -2.9375 L 2.28125 -2.15625 L -0.125 -5.453125 L -2.34375 -3.375 L -3.125 -4.203125 L -0.8125 -6.375 L -3.46875 -10.03125 L -5.6875 -7.9375 L -6.5 -8.78125 L -4.171875 -10.96875 L -6.578125 -14.25 L -5.734375 -15.046875 L -3.328125 -11.75 L -0.140625 -14.75 L -2.5625 -18.046875 L -1.71875 -18.828125 L 0.703125 -15.546875 L 2.875 -17.59375 L 3.6875 -16.75 Z M 0.5625 -13.8125 L -2.625 -10.8125 L 0.03125 -7.171875 L 3.21875 -10.15625 Z M 0.5625 -13.8125 "/></g></g><g style="fill:#000000;fill-opacity:1;"><g transform="translate(71.732762, 73.991462)"><path style="stroke:none" d="M -4.1875 -13.921875 L -8.296875 -10.6875 L -9.140625 -11.75 L 0.328125 -19.203125 L 1.171875 -18.140625 L -2.9375 -14.90625 L 5.421875 -4.265625 L 4.171875 -3.28125 Z M -4.1875 -13.921875 "/></g></g><g style="fill:#000000;fill-opacity:1;"><g transform="translate(85.371634, 63.484823)"><path style="stroke:none" d="M 0.375 -13.703125 C 1.550781 -14.472656 2.707031 -14.742188 3.84375 -14.515625 C 4.976562 -14.285156 5.972656 -13.515625 6.828125 -12.203125 L 10.375 -6.78125 L 9.125 -5.953125 L 5.65625 -11.265625 C 5.019531 -12.234375 4.289062 -12.8125 3.46875 -13 C 2.644531 -13.195312 1.785156 -13.003906 0.890625 -12.421875 C -0.128906 -11.753906 -0.738281 -10.925781 -0.9375 -9.9375 C -1.132812 -8.957031 -0.890625 -7.941406 -0.203125 -6.890625 L 3.015625 -1.96875 L 1.765625 -1.15625 L -6.859375 -14.375 L -5.609375 -15.1875 L -2.03125 -9.703125 C -2.03125 -10.472656 -1.820312 -11.203125 -1.40625 -11.890625 C -1 -12.585938 -0.40625 -13.191406 0.375 -13.703125 Z M 0.375 -13.703125 "/></g></g><g style="fill:#000000;fill-opacity:1;"><g transform="translate(101.749319, 53.095745)"><path style="stroke:none" d="M 8.046875 -10.09375 L -0.21875 -5.703125 C 0.394531 -4.703125 1.226562 -4.078125 2.28125 -3.828125 C 3.34375 -3.585938 4.414062 -3.753906 5.5 -4.328125 C 6.113281 -4.660156 6.613281 -5.070312 7 -5.5625 C 7.394531 -6.050781 7.675781 -6.609375 7.84375 -7.234375 L 9.046875 -6.765625 C 8.890625 -6.015625 8.554688 -5.320312 8.046875 -4.6875 C 7.535156 -4.0625 6.882812 -3.539062 6.09375 -3.125 C 5.082031 -2.582031 4.066406 -2.316406 3.046875 -2.328125 C 2.035156 -2.347656 1.109375 -2.625 0.265625 -3.15625 C -0.566406 -3.6875 -1.238281 -4.4375 -1.75 -5.40625 C -2.269531 -6.375 -2.523438 -7.347656 -2.515625 -8.328125 C -2.503906 -9.304688 -2.242188 -10.203125 -1.734375 -11.015625 C -1.234375 -11.828125 -0.523438 -12.476562 0.390625 -12.96875 C 1.304688 -13.457031 2.238281 -13.679688 3.1875 -13.640625 C 4.132812 -13.609375 5.015625 -13.320312 5.828125 -12.78125 C 6.648438 -12.25 7.320312 -11.492188 7.84375 -10.515625 Z M 1 -11.828125 C 0.0507812 -11.316406 -0.582031 -10.585938 -0.90625 -9.640625 C -1.226562 -8.691406 -1.175781 -7.707031 -0.75 -6.6875 L 6.265625 -10.421875 C 5.648438 -11.347656 4.859375 -11.941406 3.890625 -12.203125 C 2.921875 -12.460938 1.957031 -12.335938 1 -11.828125 Z M 1 -11.828125 "/></g></g><g style="fill:#000000;fill-opacity:1;"><g transform="translate(117.594805, 44.878112)"><path style="stroke:none" d="M 11.140625 -8.96875 L 8.390625 -7.796875 L 9.921875 -4.203125 L 8.515625 -3.609375 L 6.984375 -7.203125 L -0.75 -3.921875 L -1.171875 -4.953125 L 2.234375 -17.109375 L 3.796875 -17.78125 L 0.546875 -5.96875 L 6.5 -8.484375 L 5.15625 -11.65625 L 6.515625 -12.234375 L 7.859375 -9.0625 L 10.609375 -10.234375 Z M 11.140625 -8.96875 "/></g></g><g style="fill:#000000;fill-opacity:1;"><g transform="translate(135.214647, 37.655039)"><path style="stroke:none" d="M 11.9375 -5.234375 L 12.34375 -3.9375 L 2.3125 -0.734375 L -2.21875 -14.921875 L 7.5 -18.03125 L 7.90625 -16.734375 L -0.3125 -14.109375 L 1.3125 -9.0625 L 8.640625 -11.40625 L 9.046875 -10.125 L 1.71875 -7.78125 L 3.40625 -2.515625 Z M 11.9375 -5.234375 "/></g></g><g style="fill:#000000;fill-opacity:1;"><g transform="translate(153.626095, 32.059225)"><path style="stroke:none" d="M 8.734375 -13.453125 L 6.375 -1.453125 L 4.84375 -1.09375 L -2.46875 -10.90625 L -0.9375 -11.265625 L 5.28125 -2.890625 L 7.28125 -13.125 Z M 8.734375 -13.453125 "/></g></g><g style="fill:#000000;fill-opacity:1;"><g transform="translate(169.817994, 28.567491)"><path style="stroke:none" d="M 11 -6.734375 L 1.734375 -5.421875 C 1.984375 -4.273438 2.5625 -3.40625 3.46875 -2.8125 C 4.375 -2.21875 5.4375 -2.007812 6.65625 -2.1875 C 7.34375 -2.28125 7.953125 -2.492188 8.484375 -2.828125 C 9.023438 -3.160156 9.472656 -3.59375 9.828125 -4.125 L 10.828125 -3.265625 C 10.410156 -2.609375 9.851562 -2.070312 9.15625 -1.65625 C 8.46875 -1.25 7.679688 -0.976562 6.796875 -0.84375 C 5.660156 -0.6875 4.617188 -0.785156 3.671875 -1.140625 C 2.722656 -1.503906 1.941406 -2.078125 1.328125 -2.859375 C 0.710938 -3.648438 0.332031 -4.585938 0.1875 -5.671875 C 0.03125 -6.753906 0.125 -7.757812 0.46875 -8.6875 C 0.820312 -9.613281 1.375 -10.367188 2.125 -10.953125 C 2.882812 -11.546875 3.773438 -11.914062 4.796875 -12.0625 C 5.828125 -12.207031 6.78125 -12.097656 7.65625 -11.734375 C 8.539062 -11.378906 9.269531 -10.804688 9.84375 -10.015625 C 10.425781 -9.234375 10.796875 -8.296875 10.953125 -7.203125 Z M 4.96875 -10.78125 C 3.90625 -10.625 3.0625 -10.15625 2.4375 -9.375 C 1.8125 -8.59375 1.523438 -7.644531 1.578125 -6.53125 L 9.4375 -7.65625 C 9.175781 -8.726562 8.632812 -9.554688 7.8125 -10.140625 C 7 -10.722656 6.050781 -10.9375 4.96875 -10.78125 Z M 4.96875 -10.78125 "/></g></g><g style="fill:#000000;fill-opacity:1;"><g transform="translate(187.594085, 26.32279)"><path style="stroke:none" d="M 2.953125 -9.21875 C 3.253906 -9.988281 3.742188 -10.582031 4.421875 -11 C 5.097656 -11.425781 5.953125 -11.671875 6.984375 -11.734375 L 7.078125 -10.28125 L 6.71875 -10.296875 C 5.539062 -10.210938 4.644531 -9.785156 4.03125 -9.015625 C 3.414062 -8.253906 3.148438 -7.222656 3.234375 -5.921875 L 3.609375 -0.234375 L 2.109375 -0.140625 L 1.375 -11.296875 L 2.8125 -11.390625 Z M 2.953125 -9.21875 "/></g></g><path style=" stroke:none;fill-rule:nonzero;fill:#ffffff;fill-opacity:1;" d="M 345.710938 271.667969 C 346.164062 271.984375 346.582031 272.339844 346.960938 272.734375 C 347.34375 273.132812 347.683594 273.558594 347.984375 274.023438 C 348.28125 274.484375 348.53125 274.972656 348.734375 275.484375 C 348.9375 275.996094 349.089844 276.519531 349.191406 277.0625 C 349.292969 277.601562 349.339844 278.148438 349.335938 278.699219 C 349.332031 279.25 349.273438 279.792969 349.164062 280.332031 C 349.050781 280.871094 348.890625 281.394531 348.675781 281.902344 C 348.464844 282.410156 348.203125 282.890625 347.898438 283.347656 C 343.546875 289.339844 338.917969 295.105469 334.015625 300.648438 C 329.109375 306.191406 323.949219 311.488281 318.535156 316.535156 C 313.121094 321.582031 307.476562 326.359375 301.601562 330.863281 C 295.730469 335.367188 289.652344 339.578125 283.375 343.5 C 277.09375 347.417969 270.640625 351.027344 264.015625 354.324219 C 257.386719 357.625 250.617188 360.597656 243.707031 363.242188 C 236.792969 365.890625 229.769531 368.199219 222.632812 370.171875 C 215.5 372.140625 208.285156 373.765625 200.996094 375.042969 C 200.449219 375.117188 199.902344 375.136719 199.351562 375.105469 C 198.804688 375.074219 198.261719 374.992188 197.730469 374.855469 C 197.195312 374.71875 196.679688 374.53125 196.183594 374.292969 C 195.6875 374.054688 195.21875 373.773438 194.777344 373.445312 C 194.335938 373.117188 193.929688 372.746094 193.558594 372.339844 C 193.191406 371.933594 192.863281 371.492188 192.578125 371.023438 C 192.292969 370.550781 192.058594 370.058594 191.871094 369.539062 C 191.683594 369.023438 191.546875 368.492188 191.460938 367.949219 L 189.148438 351.144531 C 189.0625 350.585938 189.027344 350.023438 189.050781 349.460938 C 189.074219 348.898438 189.152344 348.339844 189.289062 347.792969 C 189.421875 347.242188 189.609375 346.714844 189.847656 346.203125 C 190.089844 345.691406 190.375 345.210938 190.710938 344.757812 C 191.046875 344.300781 191.425781 343.886719 191.847656 343.507812 C 192.265625 343.128906 192.71875 342.796875 193.203125 342.511719 C 193.6875 342.222656 194.199219 341.984375 194.730469 341.800781 C 195.265625 341.613281 195.8125 341.480469 196.371094 341.40625 C 202.480469 340.292969 208.523438 338.898438 214.5 337.21875 C 220.480469 335.535156 226.363281 333.574219 232.15625 331.335938 C 237.949219 329.097656 243.621094 326.589844 249.175781 323.8125 C 254.730469 321.039062 260.140625 318.007812 265.410156 314.71875 C 270.675781 311.429688 275.777344 307.902344 280.710938 304.128906 C 285.644531 300.359375 290.390625 296.363281 294.945312 292.144531 C 299.5 287.925781 303.847656 283.5 307.984375 278.867188 C 312.121094 274.234375 316.027344 269.417969 319.710938 264.417969 C 320.023438 263.949219 320.382812 263.515625 320.785156 263.121094 C 321.183594 262.722656 321.621094 262.371094 322.09375 262.058594 C 322.566406 261.75 323.0625 261.488281 323.585938 261.277344 C 324.109375 261.066406 324.652344 260.910156 325.207031 260.808594 C 325.761719 260.707031 326.320312 260.660156 326.886719 260.667969 C 327.449219 260.675781 328.007812 260.742188 328.558594 260.863281 C 329.109375 260.980469 329.644531 261.15625 330.164062 261.382812 C 330.679688 261.609375 331.167969 261.886719 331.628906 262.210938 Z M 345.710938 271.667969 "/><g style="fill:#000000;fill-opacity:1;"><g transform="translate(199.678582, 363.675795)"><path style="stroke:none" d="M 6.90625 -1.3125 C 5.789062 -1.082031 4.726562 -1.171875 3.71875 -1.578125 C 2.707031 -1.992188 1.835938 -2.707031 1.109375 -3.71875 C 0.390625 -4.738281 -0.128906 -6.003906 -0.453125 -7.515625 C -0.765625 -9.035156 -0.789062 -10.398438 -0.53125 -11.609375 C -0.28125 -12.828125 0.222656 -13.828125 0.984375 -14.609375 C 1.742188 -15.398438 2.679688 -15.910156 3.796875 -16.140625 C 4.929688 -16.378906 6 -16.289062 7 -15.875 C 8.007812 -15.46875 8.878906 -14.757812 9.609375 -13.75 C 10.347656 -12.738281 10.875 -11.472656 11.1875 -9.953125 C 11.507812 -8.441406 11.535156 -7.078125 11.265625 -5.859375 C 11.003906 -4.640625 10.492188 -3.632812 9.734375 -2.84375 C 8.984375 -2.0625 8.039062 -1.550781 6.90625 -1.3125 Z M 6.609375 -2.6875 C 7.472656 -2.875 8.175781 -3.265625 8.71875 -3.859375 C 9.257812 -4.460938 9.613281 -5.253906 9.78125 -6.234375 C 9.957031 -7.222656 9.910156 -8.351562 9.640625 -9.625 C 9.378906 -10.90625 8.972656 -11.953125 8.421875 -12.765625 C 7.867188 -13.585938 7.222656 -14.171875 6.484375 -14.515625 C 5.742188 -14.859375 4.941406 -14.9375 4.078125 -14.75 C 3.234375 -14.570312 2.539062 -14.175781 2 -13.5625 C 1.457031 -12.957031 1.097656 -12.171875 0.921875 -11.203125 C 0.753906 -10.234375 0.800781 -9.109375 1.0625 -7.828125 C 1.332031 -6.554688 1.742188 -5.503906 2.296875 -4.671875 C 2.847656 -3.835938 3.492188 -3.253906 4.234375 -2.921875 C 4.972656 -2.585938 5.765625 -2.507812 6.609375 -2.6875 Z M 6.609375 -2.6875 "/></g></g><g style="fill:#000000;fill-opacity:1;"><g transform="translate(219.282743, 359.279814)"><path style="stroke:none" d="M 6.9375 -10.265625 C 7.914062 -10.242188 8.738281 -10.007812 9.40625 -9.5625 C 10.070312 -9.125 10.535156 -8.476562 10.796875 -7.625 C 11.046875 -6.800781 11.039062 -6.015625 10.78125 -5.265625 C 10.519531 -4.515625 10.019531 -3.84375 9.28125 -3.25 C 8.550781 -2.664062 7.625 -2.203125 6.5 -1.859375 C 4.789062 -1.328125 3.332031 -1.28125 2.125 -1.71875 C 0.925781 -2.15625 0.140625 -3 -0.234375 -4.25 C -0.503906 -5.113281 -0.492188 -5.910156 -0.203125 -6.640625 C 0.0859375 -7.367188 0.632812 -8.019531 1.4375 -8.59375 C 0.625 -8.65625 -0.0507812 -8.894531 -0.59375 -9.3125 C -1.144531 -9.738281 -1.53125 -10.316406 -1.75 -11.046875 C -2.101562 -12.203125 -1.929688 -13.253906 -1.234375 -14.203125 C -0.546875 -15.160156 0.554688 -15.875 2.078125 -16.34375 C 3.085938 -16.644531 4.015625 -16.757812 4.859375 -16.6875 C 5.703125 -16.613281 6.414062 -16.351562 7 -15.90625 C 7.59375 -15.46875 8.007812 -14.867188 8.25 -14.109375 C 8.46875 -13.378906 8.460938 -12.6875 8.234375 -12.03125 C 8.015625 -11.375 7.582031 -10.785156 6.9375 -10.265625 Z M -0.28125 -11.453125 C -0.0390625 -10.671875 0.460938 -10.144531 1.234375 -9.875 C 2.003906 -9.601562 2.9375 -9.640625 4.03125 -9.984375 C 5.125 -10.316406 5.914062 -10.804688 6.40625 -11.453125 C 6.90625 -12.109375 7.035156 -12.820312 6.796875 -13.59375 C 6.546875 -14.394531 6.023438 -14.925781 5.234375 -15.1875 C 4.441406 -15.457031 3.515625 -15.429688 2.453125 -15.109375 C 1.367188 -14.773438 0.578125 -14.28125 0.078125 -13.625 C -0.410156 -12.96875 -0.53125 -12.242188 -0.28125 -11.453125 Z M 6.125 -3.109375 C 7.382812 -3.484375 8.289062 -4.035156 8.84375 -4.765625 C 9.394531 -5.492188 9.535156 -6.300781 9.265625 -7.1875 C 8.992188 -8.0625 8.425781 -8.644531 7.5625 -8.9375 C 6.695312 -9.226562 5.632812 -9.1875 4.375 -8.8125 C 3.132812 -8.425781 2.234375 -7.867188 1.671875 -7.140625 C 1.117188 -6.410156 0.976562 -5.609375 1.25 -4.734375 C 1.519531 -3.835938 2.082031 -3.242188 2.9375 -2.953125 C 3.800781 -2.660156 4.863281 -2.710938 6.125 -3.109375 Z M 6.125 -3.109375 "/></g></g><g style="fill:#000000;fill-opacity:1;"><g transform="translate(237.774542, 353.254722)"><path style="stroke:none" d="M 2.140625 -0.6875 C 1.847656 -0.582031 1.554688 -0.597656 1.265625 -0.734375 C 0.984375 -0.878906 0.785156 -1.101562 0.671875 -1.40625 C 0.554688 -1.695312 0.5625 -1.988281 0.6875 -2.28125 C 0.8125 -2.570312 1.019531 -2.769531 1.3125 -2.875 C 1.601562 -2.988281 1.894531 -2.976562 2.1875 -2.84375 C 2.488281 -2.71875 2.695312 -2.507812 2.8125 -2.21875 C 2.925781 -1.914062 2.914062 -1.613281 2.78125 -1.3125 C 2.644531 -1.007812 2.429688 -0.800781 2.140625 -0.6875 Z M 2.140625 -0.6875 "/></g></g><g style="fill:#000000;fill-opacity:1;"><g transform="translate(247.484919, 349.507349)"><path style="stroke:none" d="M 6.421875 -2.84375 C 5.390625 -2.363281 4.335938 -2.207031 3.265625 -2.375 C 2.191406 -2.550781 1.1875 -3.050781 0.25 -3.875 C -0.6875 -4.707031 -1.476562 -5.820312 -2.125 -7.21875 C -2.78125 -8.625 -3.117188 -9.945312 -3.140625 -11.1875 C -3.160156 -12.4375 -2.890625 -13.523438 -2.328125 -14.453125 C -1.765625 -15.390625 -0.96875 -16.097656 0.0625 -16.578125 C 1.113281 -17.066406 2.175781 -17.222656 3.25 -17.046875 C 4.320312 -16.867188 5.328125 -16.367188 6.265625 -15.546875 C 7.210938 -14.734375 8.015625 -13.625 8.671875 -12.21875 C 9.316406 -10.820312 9.644531 -9.492188 9.65625 -8.234375 C 9.675781 -6.984375 9.40625 -5.894531 8.84375 -4.96875 C 8.28125 -4.039062 7.472656 -3.332031 6.421875 -2.84375 Z M 5.84375 -4.109375 C 6.644531 -4.472656 7.238281 -5.007812 7.625 -5.71875 C 8.019531 -6.4375 8.1875 -7.289062 8.125 -8.28125 C 8.070312 -9.28125 7.773438 -10.367188 7.234375 -11.546875 C 6.679688 -12.734375 6.046875 -13.664062 5.328125 -14.34375 C 4.609375 -15.019531 3.847656 -15.4375 3.046875 -15.59375 C 2.253906 -15.757812 1.457031 -15.660156 0.65625 -15.296875 C -0.125 -14.929688 -0.707031 -14.390625 -1.09375 -13.671875 C -1.488281 -12.960938 -1.660156 -12.113281 -1.609375 -11.125 C -1.566406 -10.132812 -1.269531 -9.046875 -0.71875 -7.859375 C -0.175781 -6.679688 0.457031 -5.75 1.1875 -5.0625 C 1.914062 -4.382812 2.675781 -3.960938 3.46875 -3.796875 C 4.269531 -3.640625 5.0625 -3.742188 5.84375 -4.109375 Z M 5.84375 -4.109375 "/></g></g><g style="fill:#000000;fill-opacity:1;"><g transform="translate(265.567086, 340.799619)"><path style="stroke:none" d="M 9.109375 -6.78125 L 9.78125 -5.609375 L 0.71875 -0.40625 L 0.1875 -1.34375 L 2.546875 -9.671875 C 2.835938 -10.742188 2.960938 -11.585938 2.921875 -12.203125 C 2.890625 -12.828125 2.726562 -13.382812 2.4375 -13.875 C 2.007812 -14.632812 1.410156 -15.078125 0.640625 -15.203125 C -0.128906 -15.328125 -1 -15.113281 -1.96875 -14.5625 C -3.488281 -13.6875 -4.382812 -12.535156 -4.65625 -11.109375 L -6.078125 -11.375 C -5.921875 -12.25 -5.539062 -13.070312 -4.9375 -13.84375 C -4.332031 -14.613281 -3.539062 -15.28125 -2.5625 -15.84375 C -1.238281 -16.601562 -0.015625 -16.890625 1.109375 -16.703125 C 2.234375 -16.515625 3.101562 -15.882812 3.71875 -14.8125 C 4.101562 -14.144531 4.320312 -13.414062 4.375 -12.625 C 4.425781 -11.84375 4.269531 -10.816406 3.90625 -9.546875 L 2 -2.703125 Z M 9.109375 -6.78125 "/></g></g><g style="fill:#000000;fill-opacity:1;"><g transform="translate(280.976657, 331.609733)"><path style="stroke:none" d="M 1.9375 -1.140625 C 1.675781 -0.972656 1.390625 -0.925781 1.078125 -1 C 0.773438 -1.070312 0.53125 -1.242188 0.34375 -1.515625 C 0.164062 -1.785156 0.109375 -2.070312 0.171875 -2.375 C 0.234375 -2.675781 0.394531 -2.910156 0.65625 -3.078125 C 0.914062 -3.253906 1.203125 -3.3125 1.515625 -3.25 C 1.828125 -3.195312 2.070312 -3.035156 2.25 -2.765625 C 2.4375 -2.492188 2.492188 -2.195312 2.421875 -1.875 C 2.359375 -1.5625 2.195312 -1.316406 1.9375 -1.140625 Z M 1.9375 -1.140625 "/></g></g><g style="fill:#000000;fill-opacity:1;"><g transform="translate(289.594175, 325.823027)"><path style="stroke:none" d="M 8.140625 -7.890625 L 8.96875 -6.8125 L 0.65625 -0.5 L 0 -1.359375 L 1.28125 -9.921875 C 1.425781 -11.015625 1.441406 -11.863281 1.328125 -12.46875 C 1.210938 -13.082031 0.984375 -13.617188 0.640625 -14.078125 C 0.109375 -14.773438 -0.546875 -15.132812 -1.328125 -15.15625 C -2.109375 -15.1875 -2.941406 -14.863281 -3.828125 -14.1875 C -5.222656 -13.125 -5.960938 -11.863281 -6.046875 -10.40625 L -7.5 -10.5 C -7.4375 -11.382812 -7.15625 -12.242188 -6.65625 -13.078125 C -6.164062 -13.921875 -5.472656 -14.6875 -4.578125 -15.375 C -3.359375 -16.289062 -2.179688 -16.734375 -1.046875 -16.703125 C 0.0859375 -16.671875 1.03125 -16.160156 1.78125 -15.171875 C 2.25 -14.554688 2.554688 -13.859375 2.703125 -13.078125 C 2.859375 -12.304688 2.84375 -11.269531 2.65625 -9.96875 L 1.625 -2.9375 Z M 8.140625 -7.890625 "/></g></g><g style="fill:#000000;fill-opacity:1;"><g transform="translate(303.859742, 314.724666)"><path style="stroke:none" d="M 5.296875 -4.625 C 4.441406 -3.851562 3.476562 -3.390625 2.40625 -3.234375 C 1.332031 -3.085938 0.226562 -3.269531 -0.90625 -3.78125 C -2.039062 -4.289062 -3.128906 -5.117188 -4.171875 -6.265625 C -5.210938 -7.410156 -5.929688 -8.570312 -6.328125 -9.75 C -6.722656 -10.9375 -6.789062 -12.054688 -6.53125 -13.109375 C -6.269531 -14.160156 -5.710938 -15.070312 -4.859375 -15.84375 C -4.003906 -16.625 -3.039062 -17.09375 -1.96875 -17.25 C -0.894531 -17.40625 0.210938 -17.226562 1.359375 -16.71875 C 2.503906 -16.21875 3.597656 -15.394531 4.640625 -14.25 C 5.679688 -13.101562 6.394531 -11.9375 6.78125 -10.75 C 7.164062 -9.5625 7.226562 -8.4375 6.96875 -7.375 C 6.707031 -6.320312 6.148438 -5.40625 5.296875 -4.625 Z M 4.359375 -5.671875 C 5.003906 -6.253906 5.40625 -6.941406 5.5625 -7.734375 C 5.726562 -8.535156 5.640625 -9.398438 5.296875 -10.328125 C 4.953125 -11.265625 4.34375 -12.21875 3.46875 -13.1875 C 2.59375 -14.15625 1.707031 -14.851562 0.8125 -15.28125 C -0.0703125 -15.71875 -0.921875 -15.894531 -1.734375 -15.8125 C -2.546875 -15.726562 -3.273438 -15.394531 -3.921875 -14.8125 C -4.566406 -14.226562 -4.96875 -13.535156 -5.125 -12.734375 C -5.28125 -11.941406 -5.1875 -11.078125 -4.84375 -10.140625 C -4.507812 -9.210938 -3.90625 -8.265625 -3.03125 -7.296875 C -2.15625 -6.328125 -1.269531 -5.625 -0.375 -5.1875 C 0.519531 -4.757812 1.367188 -4.585938 2.171875 -4.671875 C 2.984375 -4.753906 3.710938 -5.085938 4.359375 -5.671875 Z M 4.359375 -5.671875 "/></g></g><g style="fill:#000000;fill-opacity:1;"><g transform="translate(318.528757, 301.027499)"><path style="stroke:none" d="M 6.65625 -9.171875 L 7.65625 -8.25 L 0.5625 -0.609375 L -0.234375 -1.34375 L -0.46875 -10 C -0.5 -11.09375 -0.625 -11.929688 -0.84375 -12.515625 C -1.070312 -13.097656 -1.394531 -13.582031 -1.8125 -13.96875 C -2.457031 -14.570312 -3.160156 -14.816406 -3.921875 -14.703125 C -4.679688 -14.585938 -5.441406 -14.117188 -6.203125 -13.296875 C -7.390625 -12.015625 -7.910156 -10.648438 -7.765625 -9.203125 L -9.203125 -9.046875 C -9.296875 -9.929688 -9.171875 -10.828125 -8.828125 -11.734375 C -8.484375 -12.648438 -7.925781 -13.523438 -7.15625 -14.359375 C -6.113281 -15.472656 -5.03125 -16.109375 -3.90625 -16.265625 C -2.78125 -16.429688 -1.765625 -16.09375 -0.859375 -15.25 C -0.296875 -14.726562 0.125 -14.097656 0.40625 -13.359375 C 0.695312 -12.628906 0.851562 -11.601562 0.875 -10.28125 L 1.09375 -3.171875 Z M 6.65625 -9.171875 "/></g></g><g style="fill:#000000;fill-opacity:1;"><g transform="translate(330.641965, 287.634917)"><path style="stroke:none" d="M -2.53125 -11.203125 C -1.9375 -11.972656 -1.257812 -12.546875 -0.5 -12.921875 C 0.257812 -13.296875 1.035156 -13.441406 1.828125 -13.359375 C 2.628906 -13.285156 3.378906 -12.972656 4.078125 -12.421875 C 4.796875 -11.859375 5.289062 -11.1875 5.5625 -10.40625 C 5.84375 -9.632812 5.890625 -8.828125 5.703125 -7.984375 C 5.515625 -7.148438 5.125 -6.351562 4.53125 -5.59375 C 3.320312 -4.039062 1.882812 -3.253906 0.21875 -3.234375 C -1.445312 -3.210938 -3.210938 -3.925781 -5.078125 -5.375 C -6.378906 -6.394531 -7.304688 -7.484375 -7.859375 -8.640625 C -8.421875 -9.804688 -8.617188 -10.96875 -8.453125 -12.125 C -8.285156 -13.289062 -7.785156 -14.40625 -6.953125 -15.46875 C -6.046875 -16.632812 -5.109375 -17.394531 -4.140625 -17.75 L -3.546875 -16.53125 C -4.347656 -16.25 -5.125 -15.628906 -5.875 -14.671875 C -6.882812 -13.378906 -7.269531 -12.039062 -7.03125 -10.65625 C -6.789062 -9.28125 -5.890625 -7.984375 -4.328125 -6.765625 C -4.035156 -6.535156 -3.707031 -6.300781 -3.34375 -6.0625 C -3.75 -6.851562 -3.875 -7.703125 -3.71875 -8.609375 C -3.570312 -9.515625 -3.175781 -10.378906 -2.53125 -11.203125 Z M 3.484375 -6.34375 C 4.148438 -7.195312 4.457031 -8.066406 4.40625 -8.953125 C 4.351562 -9.847656 3.941406 -10.597656 3.171875 -11.203125 C 2.398438 -11.804688 1.578125 -12.019531 0.703125 -11.84375 C -0.160156 -11.675781 -0.953125 -11.132812 -1.671875 -10.21875 C -2.128906 -9.632812 -2.421875 -9.03125 -2.546875 -8.40625 C -2.679688 -7.78125 -2.648438 -7.1875 -2.453125 -6.625 C -2.265625 -6.0625 -1.929688 -5.59375 -1.453125 -5.21875 C -1.003906 -4.875 -0.5 -4.671875 0.0625 -4.609375 C 0.632812 -4.546875 1.21875 -4.65625 1.8125 -4.9375 C 2.414062 -5.226562 2.972656 -5.695312 3.484375 -6.34375 Z M 3.484375 -6.34375 "/></g></g><g style="fill:#000000;fill-opacity:1;"><g transform="translate(100.512171, 204.315248)"><path style="stroke:none" d="M -6.421875 -121.625 C -5.671875 -121.625 -4.332031 -121.625 -2.40625 -121.625 C -0.476562 -121.625 2.140625 -121.300781 5.453125 -120.65625 C 8.773438 -120.019531 11.851562 -119.082031 14.6875 -117.84375 C 17.53125 -116.613281 20.316406 -114.847656 23.046875 -112.546875 C 25.785156 -110.242188 28.117188 -108.101562 30.046875 -106.125 C 31.972656 -104.144531 33.925781 -101.546875 35.90625 -98.328125 C 37.882812 -95.117188 39.488281 -92.390625 40.71875 -90.140625 C 41.957031 -87.890625 43.328125 -84.941406 44.828125 -81.296875 C 46.753906 -76.691406 48.304688 -72.703125 49.484375 -69.328125 C 50.660156 -65.953125 51.300781 -64.101562 51.40625 -63.78125 C 51.519531 -63.46875 51.679688 -63.09375 51.890625 -62.65625 C 52.210938 -61.800781 52.484375 -61.050781 52.703125 -60.40625 C 53.023438 -61.15625 53.773438 -63.132812 54.953125 -66.34375 C 56.128906 -69.5625 57.222656 -72.457031 58.234375 -75.03125 C 59.253906 -77.601562 60.835938 -81.242188 62.984375 -85.953125 C 65.128906 -90.671875 67.082031 -94.394531 68.84375 -97.125 C 70.613281 -99.851562 72.890625 -102.984375 75.671875 -106.515625 C 78.460938 -110.054688 81.25 -112.789062 84.03125 -114.71875 C 90.882812 -119.320312 98.171875 -121.625 105.890625 -121.625 L 105.890625 -120.015625 C 99.890625 -120.015625 93.753906 -116.851562 87.484375 -110.53125 C 81.222656 -104.21875 75.867188 -96.585938 71.421875 -87.640625 C 66.972656 -78.703125 63.328125 -69.4375 60.484375 -59.84375 C 57.648438 -50.257812 56.234375 -42.09375 56.234375 -35.34375 L 56.234375 -11.734375 C 56.234375 -7.867188 57.894531 -4.972656 61.21875 -3.046875 C 62.820312 -2.085938 64.585938 -1.609375 66.515625 -1.609375 L 68.453125 -1.609375 L 68.453125 0 L 33.421875 0 L 33.421875 -1.609375 L 35.515625 -1.609375 C 38.191406 -1.609375 40.546875 -2.570312 42.578125 -4.5 C 44.609375 -6.425781 45.679688 -8.78125 45.796875 -11.5625 L 45.796875 -35.515625 C 45.796875 -42.691406 44.296875 -51.097656 41.296875 -60.734375 C 38.296875 -70.367188 34.4375 -79.601562 29.71875 -88.4375 C 25.007812 -97.28125 19.382812 -104.753906 12.84375 -110.859375 C 6.3125 -116.960938 -0.109375 -120.015625 -6.421875 -120.015625 Z M -6.421875 -121.625 "/></g></g><g style="fill:#000000;fill-opacity:1;"><g transform="translate(157.610837, 300.565919)"><path style="stroke:none" d="M 124.515625 -143.96875 C 128.160156 -146.425781 132.5 -148.347656 137.53125 -149.734375 C 142.5625 -151.128906 146.628906 -151.828125 149.734375 -151.828125 C 152.847656 -151.828125 154.832031 -151.828125 155.6875 -151.828125 L 155.6875 -150.234375 C 150.65625 -150.015625 145.941406 -149.019531 141.546875 -147.25 C 137.148438 -145.488281 133.53125 -143.457031 130.6875 -141.15625 C 127.851562 -138.851562 125.097656 -135.796875 122.421875 -131.984375 C 119.742188 -128.179688 117.679688 -124.941406 116.234375 -122.265625 C 114.796875 -119.585938 113.113281 -116.160156 111.1875 -111.984375 L 66.515625 -14.296875 C 62.546875 -5.617188 60.5625 -0.101562 60.5625 2.25 L 59.125 2.25 L 13.96875 -100.734375 C 12.46875 -104.171875 10.40625 -106.71875 7.78125 -108.375 C 5.164062 -110.03125 2.515625 -110.859375 -0.171875 -110.859375 L -1.453125 -110.859375 L -1.453125 -112.46875 L 34.703125 -112.46875 L 34.703125 -110.859375 L 33.25 -110.859375 C 30.039062 -110.859375 27.898438 -109.359375 26.828125 -106.359375 C 26.609375 -105.722656 26.5 -104.972656 26.5 -104.109375 C 26.5 -103.253906 26.769531 -102.1875 27.3125 -100.90625 L 60.890625 -16.703125 L 100.734375 -111.984375 C 107.054688 -126.878906 114.984375 -137.539062 124.515625 -143.96875 Z M 124.515625 -143.96875 "/></g></g><g style="fill:#000000;fill-opacity:1;"><g transform="translate(86.990014, 295.885623)"><path style="stroke:none" d="M 7.0625 0 L 4.34375 0 L 0.5 -10.859375 L 2.859375 -10.859375 L 5.75 -1.671875 L 8.671875 -10.859375 L 10.984375 -10.859375 Z M 7.0625 0 "/></g></g><g style="fill:#000000;fill-opacity:1;"><g transform="translate(108.370511, 295.885623)"><path style="stroke:none" d="M 7.28125 -3.265625 L 3.640625 -3.265625 L 2.546875 0 L 0.234375 0 L 4.15625 -10.859375 L 6.875 -10.859375 L 10.71875 0 L 8.359375 0 Z M 5.46875 -9 L 4.1875 -4.984375 L 6.734375 -4.984375 Z M 5.46875 -9 "/></g></g><g style="fill:#000000;fill-opacity:1;"><g transform="translate(129.562299, 295.885623)"><path style="stroke:none" d="M 3.578125 0 L 1.40625 0 L 1.40625 -10.859375 L 3.578125 -10.859375 Z M 3.578125 0 "/></g></g><g style="fill:#000000;fill-opacity:1;"><g transform="translate(144.715362, 295.885623)"><path style="stroke:none" d="M 7.734375 -5.859375 C 9.128906 -5.492188 9.828125 -4.617188 9.828125 -3.234375 C 9.828125 -2.304688 9.535156 -1.570312 8.953125 -1.03125 C 8.378906 -0.5 7.679688 -0.175781 6.859375 -0.0625 C 6.492188 -0.0195312 5.988281 0 5.34375 0 L 1.40625 0 L 1.40625 -10.859375 L 5.28125 -10.859375 C 5.863281 -10.859375 6.332031 -10.835938 6.6875 -10.796875 C 7.5625 -10.691406 8.234375 -10.394531 8.703125 -9.90625 C 9.179688 -9.425781 9.421875 -8.820312 9.421875 -8.09375 C 9.421875 -6.988281 8.859375 -6.242188 7.734375 -5.859375 Z M 3.578125 -9.15625 L 3.578125 -6.40625 L 5.203125 -6.40625 C 5.460938 -6.40625 5.722656 -6.421875 5.984375 -6.453125 C 6.765625 -6.578125 7.15625 -7.023438 7.15625 -7.796875 C 7.15625 -8.566406 6.75 -9.003906 5.9375 -9.109375 C 5.675781 -9.140625 5.410156 -9.15625 5.140625 -9.15625 Z M 6.1875 -1.734375 C 6.582031 -1.765625 6.90625 -1.910156 7.15625 -2.171875 C 7.414062 -2.429688 7.546875 -2.78125 7.546875 -3.21875 C 7.546875 -4.132812 7.082031 -4.640625 6.15625 -4.734375 C 5.894531 -4.765625 5.632812 -4.78125 5.375 -4.78125 L 3.578125 -4.78125 L 3.578125 -1.71875 L 5.453125 -1.71875 C 5.804688 -1.71875 6.050781 -1.722656 6.1875 -1.734375 Z M 6.1875 -1.734375 "/></g></g><g style="fill:#000000;fill-opacity:1;"><g transform="translate(165.608368, 295.885623)"><path style="stroke:none" d="M 10.8125 -10.859375 L 10.8125 0 L 8.65625 0 L 8.65625 -4.453125 L 3.578125 -4.453125 L 3.578125 0 L 1.40625 0 L 1.40625 -10.859375 L 3.578125 -10.859375 L 3.578125 -6.1875 L 8.65625 -6.1875 L 8.65625 -10.859375 Z M 10.8125 -10.859375 "/></g></g><g style="fill:#000000;fill-opacity:1;"><g transform="translate(187.995319, 295.885623)"><path style="stroke:none" d="M 7.28125 -3.265625 L 3.640625 -3.265625 L 2.546875 0 L 0.234375 0 L 4.15625 -10.859375 L 6.875 -10.859375 L 10.71875 0 L 8.359375 0 Z M 5.46875 -9 L 4.1875 -4.984375 L 6.734375 -4.984375 Z M 5.46875 -9 "/></g></g><g style="fill:#000000;fill-opacity:1;"><g transform="translate(198.654704, 107.690411)"><path style="stroke:none" d="M 9.390625 -1.9375 L 9.390625 0 L 1.34375 0 L 1.34375 -10.859375 L 9.234375 -10.859375 L 9.234375 -8.9375 L 3.8125 -8.9375 L 3.8125 -6.40625 L 8.875 -6.40625 L 8.875 -4.484375 L 3.8125 -4.484375 L 3.8125 -1.9375 Z M 9.390625 -1.9375 "/></g></g><g style="fill:#000000;fill-opacity:1;"><g transform="translate(219.06163, 107.690411)"><path style="stroke:none" d="M 5.03125 -11.078125 C 5.9375 -11.078125 6.679688 -10.925781 7.265625 -10.625 C 7.847656 -10.320312 8.289062 -9.90625 8.59375 -9.375 C 8.90625 -8.851562 9.097656 -8.257812 9.171875 -7.59375 L 6.6875 -7.59375 C 6.625 -8.101562 6.453125 -8.503906 6.171875 -8.796875 C 5.890625 -9.097656 5.484375 -9.25 4.953125 -9.25 C 4.566406 -9.25 4.25 -9.15625 4 -8.96875 C 3.757812 -8.789062 3.640625 -8.503906 3.640625 -8.109375 C 3.640625 -7.691406 3.800781 -7.359375 4.125 -7.109375 C 4.457031 -6.867188 5.0625 -6.644531 5.9375 -6.4375 C 7.125 -6.15625 7.988281 -5.726562 8.53125 -5.15625 C 9.082031 -4.59375 9.359375 -3.878906 9.359375 -3.015625 C 9.359375 -2.316406 9.164062 -1.722656 8.78125 -1.234375 C 8.394531 -0.753906 7.882812 -0.390625 7.25 -0.140625 C 6.625 0.0976562 5.945312 0.21875 5.21875 0.21875 C 3.882812 0.21875 2.804688 -0.0664062 1.984375 -0.640625 C 1.160156 -1.210938 0.703125 -2.082031 0.609375 -3.25 L 3.09375 -3.25 C 3.207031 -2.695312 3.457031 -2.285156 3.84375 -2.015625 C 4.238281 -1.742188 4.679688 -1.609375 5.171875 -1.609375 C 5.628906 -1.609375 6.007812 -1.71875 6.3125 -1.9375 C 6.625 -2.15625 6.78125 -2.445312 6.78125 -2.8125 C 6.78125 -3.195312 6.632812 -3.519531 6.34375 -3.78125 C 6.0625 -4.050781 5.546875 -4.269531 4.796875 -4.4375 C 4.023438 -4.632812 3.359375 -4.863281 2.796875 -5.125 C 2.234375 -5.382812 1.800781 -5.734375 1.5 -6.171875 C 1.195312 -6.609375 1.046875 -7.175781 1.046875 -7.875 C 1.046875 -8.550781 1.234375 -9.128906 1.609375 -9.609375 C 1.984375 -10.085938 2.472656 -10.453125 3.078125 -10.703125 C 3.679688 -10.953125 4.332031 -11.078125 5.03125 -11.078125 Z M 5.03125 -11.078125 "/></g></g><g style="fill:#000000;fill-opacity:1;"><g transform="translate(239.311274, 107.690411)"><path style="stroke:none" d="M 11.015625 -10.859375 L 11.015625 0 L 8.5625 0 L 8.5625 -4.359375 L 3.8125 -4.359375 L 3.8125 0 L 1.34375 0 L 1.34375 -10.859375 L 3.8125 -10.859375 L 3.8125 -6.296875 L 8.5625 -6.296875 L 8.5625 -10.859375 Z M 11.015625 -10.859375 "/></g></g><g style="fill:#000000;fill-opacity:1;"><g transform="translate(261.825774, 107.690411)"><path style="stroke:none" d="M 7.328125 -3.0625 L 3.796875 -3.0625 L 2.78125 0 L 0.15625 0 L 4.078125 -10.859375 L 7.125 -10.859375 L 11 0 L 8.328125 0 Z M 5.5625 -8.71875 L 4.40625 -5 L 6.71875 -5 Z M 5.5625 -8.71875 "/></g></g></g></svg>