<svg xmlns="http://www.w3.org/2000/svg" xmlns:xlink="http://www.w3.org/1999/xlink" width="500" zoomAndPan="magnify" viewBox="0 0 375 374.999991" height="500" preserveAspectRatio="xMidYMid meet" version="1.2"><defs><clipPath id="473e1ca5a5"><path d="M 32 43.386719 L 343 43.386719 L 343 339.636719 L 32 339.636719 Z M 32 43.386719 "/></clipPath></defs><g id="045532fb5b"><rect x="0" width="375" y="0" height="374.999991" style="fill:#ffffff;fill-opacity:1;stroke:none;"/><rect x="0" width="375" y="0" height="374.999991" style="fill:#ffffff;fill-opacity:1;stroke:none;"/><g clip-rule="nonzero" clip-path="url(#473e1ca5a5)"><path style=" stroke:none;fill-rule:nonzero;fill:#100f0d;fill-opacity:1;" d="M 128.414062 72.976562 C 128.378906 73.039062 128.34375 73.101562 128.316406 73.132812 C 128.179688 73.28125 127.734375 73.394531 127.746094 73.1875 C 127.75 73.097656 128.15625 73.007812 128.414062 72.976562 Z M 129.675781 72.84375 C 129.710938 72.753906 129.710938 72.652344 129.6875 72.546875 C 129.683594 72.535156 129.691406 72.523438 129.6875 72.511719 C 129.65625 72.304688 129.542969 72.191406 129.402344 72.132812 C 128.476562 71.285156 126.183594 72.144531 126.628906 73.515625 C 127.203125 75.289062 129.585938 74.355469 129.675781 72.84375 Z M 116.375 78.546875 C 116.449219 78.402344 116.828125 78.40625 116.945312 78.410156 C 117.078125 78.417969 117.230469 78.472656 117.328125 78.5 C 117.226562 78.617188 117.085938 78.734375 116.980469 78.789062 C 116.828125 78.882812 116.140625 79.03125 116.375 78.546875 Z M 116.710938 80.109375 C 117.347656 80.066406 118.15625 79.53125 118.460938 78.902344 C 118.519531 78.839844 118.554688 78.765625 118.578125 78.675781 C 118.578125 78.667969 118.582031 78.667969 118.582031 78.664062 C 118.585938 78.65625 118.582031 78.648438 118.582031 78.636719 C 118.589844 78.59375 118.601562 78.558594 118.601562 78.507812 C 118.601562 78.488281 118.589844 78.476562 118.589844 78.460938 C 118.582031 78.394531 118.5625 78.335938 118.539062 78.285156 C 118.191406 76.894531 115.550781 76.84375 115.226562 78.300781 C 115.027344 79.199219 115.785156 80.167969 116.710938 80.109375 Z M 162.148438 64.847656 C 162.242188 64.816406 162.355469 64.820312 162.277344 64.753906 C 162.476562 64.925781 162.222656 65.550781 162.003906 65.714844 C 161.863281 65.636719 161.675781 65.425781 161.667969 65.304688 C 161.660156 65.101562 162.007812 64.898438 162.148438 64.847656 Z M 160.503906 65.382812 C 160.550781 66.050781 161.175781 66.734375 161.863281 66.871094 C 161.921875 66.902344 161.992188 66.917969 162.070312 66.921875 C 162.078125 66.921875 162.085938 66.925781 162.097656 66.925781 C 162.121094 66.925781 162.136719 66.914062 162.160156 66.914062 C 162.191406 66.910156 162.21875 66.914062 162.253906 66.90625 C 162.269531 66.898438 162.28125 66.886719 162.292969 66.882812 C 162.339844 66.867188 162.382812 66.84375 162.421875 66.816406 C 163.613281 66.246094 164.050781 63.699219 162.386719 63.605469 C 161.484375 63.554688 160.4375 64.453125 160.503906 65.382812 Z M 143.535156 62.09375 C 143.488281 62.355469 143.175781 62.394531 142.902344 62.3125 C 142.167969 62.085938 142.5625 61.230469 142.988281 60.914062 C 142.832031 60.988281 143.136719 61.191406 143.246094 61.367188 C 143.34375 61.519531 143.570312 61.894531 143.535156 62.09375 Z M 144.410156 63.03125 C 145.328125 62.074219 144.148438 59.792969 142.847656 59.8125 C 142.714844 59.765625 142.558594 59.78125 142.398438 59.898438 C 142.296875 59.945312 142.226562 60.011719 142.179688 60.082031 C 141.40625 60.777344 140.96875 61.878906 141.644531 62.820312 C 142.234375 63.648438 143.691406 63.792969 144.410156 63.03125 Z M 149.730469 64.660156 C 149.714844 65.007812 149.164062 66.078125 148.726562 65.480469 C 148.5 65.171875 149.398438 64.597656 149.730469 64.660156 Z M 150.289062 66.195312 C 150.691406 65.726562 150.988281 64.878906 150.804688 64.234375 C 150.800781 64.164062 150.785156 64.09375 150.75 64.027344 C 150.742188 64.015625 150.746094 63.996094 150.738281 63.980469 C 150.722656 63.949219 150.695312 63.929688 150.671875 63.902344 C 150.664062 63.890625 150.660156 63.875 150.648438 63.867188 C 150.640625 63.859375 150.632812 63.855469 150.625 63.847656 C 150.59375 63.816406 150.5625 63.785156 150.527344 63.765625 C 149.246094 62.75 146.488281 64.832031 147.777344 66.226562 C 148.460938 66.960938 149.644531 66.949219 150.289062 66.195312 Z M 161.257812 53.621094 C 161.257812 53.628906 161.261719 53.632812 161.257812 53.644531 C 161.242188 53.730469 161.265625 53.839844 161.261719 53.921875 C 161.25 54.101562 161.214844 54.46875 161.085938 54.601562 C 160.914062 54.785156 160.707031 54.730469 160.546875 54.425781 C 160.285156 53.921875 160.824219 53.671875 161.257812 53.621094 Z M 161.242188 53.558594 C 161.242188 53.5625 161.25 53.566406 161.253906 53.566406 C 161.253906 53.570312 161.257812 53.566406 161.257812 53.570312 C 161.25 53.566406 161.242188 53.5625 161.242188 53.558594 Z M 161.21875 55.910156 C 162.484375 55.726562 162.972656 53.078125 161.761719 52.53125 C 161.726562 52.511719 161.699219 52.492188 161.65625 52.480469 C 161.640625 52.472656 161.628906 52.457031 161.609375 52.453125 C 161.582031 52.441406 161.554688 52.449219 161.527344 52.449219 C 161.5 52.441406 161.480469 52.429688 161.453125 52.429688 C 160.402344 52.398438 159.257812 53.066406 159.28125 54.246094 C 159.300781 55.179688 160.273438 56.050781 161.21875 55.910156 Z M 167.066406 48.210938 C 167.503906 48.238281 167.53125 48.285156 167.203125 48.59375 C 167.050781 48.738281 166.859375 48.816406 166.660156 48.816406 C 166.632812 48.738281 166.585938 48.621094 166.597656 48.53125 C 166.628906 48.242188 166.753906 48.199219 167.066406 48.210938 Z M 165.960938 49.8125 C 165.984375 49.839844 166.003906 49.871094 166.03125 49.894531 C 166.128906 49.960938 166.226562 49.988281 166.320312 49.992188 C 167.949219 50.433594 169.726562 47.695312 167.644531 47.121094 C 166.808594 46.890625 165.765625 47.105469 165.484375 48.03125 C 165.304688 48.625 165.476562 49.394531 165.957031 49.808594 C 165.957031 49.8125 165.957031 49.8125 165.960938 49.8125 Z M 181.644531 44.9375 C 181.84375 44.980469 182.039062 45.644531 181.996094 45.929688 C 181.992188 45.925781 181.980469 45.925781 181.976562 45.921875 C 181.847656 45.835938 181.707031 45.785156 181.601562 45.667969 C 181.449219 45.496094 181.367188 44.882812 181.644531 44.9375 Z M 182.128906 47.140625 C 182.199219 47.15625 182.285156 47.160156 182.367188 47.144531 C 182.382812 47.140625 182.398438 47.148438 182.410156 47.144531 C 182.605469 47.105469 182.722656 46.996094 182.785156 46.867188 C 183.726562 45.890625 182.792969 43.351562 181.324219 43.8125 C 179.367188 44.433594 180.441406 47.152344 182.128906 47.140625 Z M 134.859375 59.960938 C 134.921875 59.933594 134.984375 59.921875 135.050781 59.914062 C 134.902344 60.195312 134.546875 60.75 134.578125 60.34375 C 134.601562 60.117188 134.617188 60.070312 134.859375 59.960938 Z M 136.117188 59.226562 C 136.101562 59.121094 136.046875 59.023438 135.960938 58.9375 C 135.957031 58.933594 135.957031 58.929688 135.953125 58.921875 C 135.929688 58.902344 135.90625 58.894531 135.878906 58.871094 C 135.863281 58.859375 135.855469 58.84375 135.832031 58.832031 C 135.828125 58.828125 135.820312 58.832031 135.816406 58.828125 C 135.722656 58.769531 135.625 58.734375 135.53125 58.742188 C 134.144531 58.351562 132.601562 60.164062 133.835938 61.351562 C 134.980469 62.453125 136.671875 60.445312 136.117188 59.226562 Z M 315.023438 230.679688 C 315.523438 229.832031 315.699219 230.875 315.496094 231.148438 C 315.378906 231.15625 315.242188 231.148438 315.152344 231.097656 C 314.875 230.953125 314.859375 230.96875 315.023438 230.679688 Z M 314.621094 229.421875 C 313.90625 229.925781 313.382812 230.972656 314.023438 231.726562 C 314.375 232.136719 315.125 232.417969 315.707031 232.308594 C 315.816406 232.316406 315.933594 232.300781 316.054688 232.210938 C 317.492188 231.171875 316.316406 228.242188 314.621094 229.421875 Z M 312.371094 237.003906 C 312.519531 237.070312 312.519531 237.449219 312.515625 237.570312 C 312.507812 237.6875 312.496094 237.808594 312.453125 237.921875 C 312.441406 237.941406 312.4375 237.945312 312.425781 237.957031 C 312.308594 237.851562 312.195312 237.714844 312.132812 237.613281 C 312.046875 237.460938 311.882812 236.777344 312.371094 237.003906 Z M 312.257812 239.207031 C 312.261719 239.207031 312.261719 239.210938 312.265625 239.210938 C 312.269531 239.210938 312.277344 239.210938 312.285156 239.210938 C 312.328125 239.21875 312.367188 239.234375 312.421875 239.230469 C 312.441406 239.226562 312.457031 239.21875 312.46875 239.21875 C 312.535156 239.210938 312.589844 239.191406 312.640625 239.164062 C 314.03125 238.816406 314.074219 236.171875 312.621094 235.851562 C 311.71875 235.65625 310.75 236.417969 310.8125 237.34375 C 310.855469 237.976562 311.394531 238.789062 312.023438 239.089844 C 312.085938 239.148438 312.164062 239.183594 312.257812 239.207031 Z M 304.726562 236.554688 C 304.753906 236.417969 304.816406 236.257812 304.910156 236.183594 C 305.183594 235.96875 305.652344 236.425781 305.542969 236.675781 C 305.453125 236.871094 304.871094 236.730469 304.726562 236.554688 Z M 304.820312 234.894531 C 304.1875 235.035156 303.621094 235.777344 303.558594 236.449219 C 303.511719 236.554688 303.496094 236.683594 303.550781 236.828125 C 303.5625 236.859375 303.589844 236.886719 303.605469 236.917969 C 304.207031 238.214844 306.84375 238.324219 306.703125 236.570312 C 306.640625 235.699219 305.746094 234.683594 304.820312 234.894531 Z M 300.367188 256.636719 C 300.253906 256.523438 300.089844 256.28125 300.089844 256.136719 C 300.089844 255.851562 300.804688 255.429688 300.980469 255.621094 C 301.183594 255.835938 300.703125 256.53125 300.367188 256.636719 Z M 301.167969 254.46875 C 300.230469 254.320312 298.984375 254.941406 298.917969 255.976562 C 298.875 256.625 299.320312 257.46875 299.964844 257.742188 C 300.003906 257.773438 300.046875 257.792969 300.097656 257.8125 C 300.109375 257.816406 300.121094 257.828125 300.136719 257.828125 C 300.152344 257.832031 300.171875 257.828125 300.195312 257.828125 C 300.226562 257.835938 300.253906 257.851562 300.292969 257.851562 C 300.308594 257.851562 300.332031 257.835938 300.351562 257.832031 C 300.382812 257.828125 300.40625 257.828125 300.433594 257.816406 C 301.949219 257.636719 303.085938 254.777344 301.167969 254.46875 Z M 307.839844 264.980469 C 307.839844 264.894531 308.25 264.800781 308.507812 264.769531 C 308.472656 264.835938 308.4375 264.894531 308.410156 264.929688 C 308.273438 265.074219 307.824219 265.1875 307.839844 264.980469 Z M 309.78125 264.339844 C 309.777344 264.328125 309.785156 264.316406 309.78125 264.304688 C 309.75 264.101562 309.636719 263.984375 309.496094 263.925781 C 308.566406 263.078125 306.277344 263.9375 306.722656 265.308594 C 307.296875 267.082031 309.679688 266.148438 309.769531 264.632812 C 309.804688 264.546875 309.804688 264.445312 309.78125 264.339844 Z M 295.433594 267.5625 C 295.28125 267.648438 294.59375 267.796875 294.832031 267.316406 C 294.902344 267.167969 295.28125 267.171875 295.402344 267.179688 C 295.53125 267.183594 295.683594 267.238281 295.78125 267.265625 C 295.679688 267.382812 295.539062 267.5 295.433594 267.5625 Z M 297.042969 267.226562 C 297.039062 267.160156 297.019531 267.105469 296.992188 267.054688 C 296.648438 265.664062 294.003906 265.613281 293.683594 267.066406 C 293.484375 267.964844 294.238281 268.9375 295.164062 268.878906 C 295.800781 268.839844 296.609375 268.300781 296.917969 267.671875 C 296.972656 267.613281 297.011719 267.53125 297.03125 267.441406 C 297.03125 267.4375 297.035156 267.433594 297.035156 267.429688 C 297.039062 267.421875 297.035156 267.417969 297.039062 267.40625 C 297.042969 267.363281 297.058594 267.324219 297.058594 267.273438 C 297.058594 267.257812 297.042969 267.246094 297.042969 267.226562 Z M 198.917969 58.488281 C 198.996094 58.554688 199.074219 58.625 199.097656 58.667969 C 199.167969 58.820312 199.128906 59.070312 199.03125 59.011719 C 198.921875 58.941406 198.910156 58.671875 198.917969 58.488281 Z M 200.347656 58.550781 C 200.1875 57.941406 199.59375 57.382812 198.976562 57.214844 C 198.933594 57.195312 198.890625 57.175781 198.84375 57.171875 C 198.824219 57.171875 198.800781 57.15625 198.785156 57.152344 C 198.582031 57.125 198.441406 57.195312 198.351562 57.304688 C 197.277344 57.886719 197.675781 60.164062 198.996094 60.195312 C 199.839844 60.214844 200.554688 59.375 200.347656 58.550781 Z M 195.464844 49.09375 C 195.261719 49.019531 195.210938 48.59375 195.199219 48.417969 C 195.195312 48.277344 195.191406 48.125 195.234375 47.992188 C 195.25 47.953125 195.25 47.953125 195.25 47.9375 C 195.320312 47.976562 195.414062 48.019531 195.445312 48.050781 C 195.5625 48.144531 195.691406 48.261719 195.773438 48.386719 C 195.941406 48.632812 195.957031 49.273438 195.464844 49.09375 Z M 195.511719 50.28125 C 196.5 50.28125 197.332031 49.304688 197.058594 48.339844 C 196.859375 47.628906 196.097656 46.863281 195.339844 46.722656 C 195.320312 46.71875 195.304688 46.710938 195.289062 46.707031 C 195.261719 46.703125 195.234375 46.683594 195.203125 46.679688 C 195.035156 46.667969 194.902344 46.722656 194.808594 46.8125 C 193.445312 47.398438 193.9375 50.28125 195.511719 50.28125 Z M 308.183594 248.992188 C 307.894531 248.78125 307.988281 248.496094 308.21875 248.269531 C 308.292969 248.378906 308.566406 248.707031 308.566406 248.902344 C 308.558594 249.171875 308.445312 249.183594 308.183594 248.992188 Z M 309.375 249.945312 C 310.332031 249.183594 309.328125 246.929688 308.148438 247.050781 C 308.023438 247.019531 307.882812 247.039062 307.738281 247.148438 C 307.011719 247.691406 306.503906 248.632812 307 249.515625 C 307.457031 250.328125 308.652344 250.527344 309.375 249.945312 Z M 312.992188 251.664062 C 312.890625 251.601562 313.007812 251.539062 313.167969 251.414062 C 313.230469 251.371094 313.375 251.292969 313.5 251.242188 C 313.488281 251.292969 313.480469 251.34375 313.460938 251.386719 C 313.378906 251.589844 313.25 251.820312 312.992188 251.664062 Z M 314.601562 250.5 C 314.597656 250.488281 314.597656 250.480469 314.597656 250.46875 C 314.574219 250.425781 314.542969 250.394531 314.511719 250.359375 C 314.507812 250.355469 314.507812 250.355469 314.503906 250.351562 C 314.503906 250.347656 314.503906 250.347656 314.5 250.347656 C 314.417969 250.253906 314.324219 250.195312 314.214844 250.183594 C 313.019531 249.585938 310.953125 251.238281 312.035156 252.40625 C 313.203125 253.667969 315.023438 252.179688 314.679688 250.773438 C 314.683594 250.683594 314.652344 250.589844 314.601562 250.5 Z M 323.425781 241.914062 C 323.347656 242.214844 323.195312 242.5625 322.917969 242.734375 C 322.296875 243.121094 322.109375 242.519531 322.367188 242.0625 C 322.695312 241.742188 323.652344 241.039062 323.425781 241.914062 Z M 324.0625 240.40625 C 323.191406 239.933594 322.054688 240.648438 321.476562 241.285156 C 321.457031 241.308594 321.453125 241.332031 321.433594 241.355469 C 321.417969 241.378906 321.398438 241.382812 321.382812 241.40625 C 320.835938 242.222656 320.875 243.40625 321.855469 243.878906 C 322.851562 244.359375 323.90625 243.675781 324.351562 242.78125 C 324.707031 242.0625 324.910156 240.867188 324.0625 240.40625 Z M 341.367188 173.542969 C 341.144531 174.714844 341.175781 174.617188 340.472656 173.738281 C 340.425781 173.640625 340.351562 173.558594 340.269531 173.492188 C 340.171875 173.375 340.078125 173.261719 339.957031 173.125 C 338.65625 171.894531 337.789062 169.359375 336.902344 167.816406 C 334.75 164.070312 332.539062 160.355469 330.203125 156.714844 C 325.839844 149.910156 321.015625 142.519531 314.636719 137.316406 C 314.351562 136.992188 314.050781 136.6875 313.757812 136.371094 C 323.875 142.148438 333.097656 150.054688 338.160156 160.738281 C 339.605469 163.785156 340.714844 167.0625 341.183594 170.410156 C 341.316406 171.367188 341.546875 172.578125 341.367188 173.542969 Z M 338.429688 174.972656 C 337.179688 176.320312 336.421875 175.859375 335.105469 174.9375 C 333.683594 173.9375 332.457031 172.679688 331.210938 171.476562 C 329.4375 169.765625 327.707031 168 326.5625 165.785156 C 325.210938 163.167969 325.175781 160.292969 324.609375 157.460938 C 323.574219 152.316406 321.515625 147.273438 318.667969 142.757812 C 323.1875 147.714844 326.894531 153.640625 330.332031 159.117188 C 332.464844 162.515625 334.5 165.976562 336.492188 169.464844 C 337.257812 170.8125 337.976562 172.867188 339.125 173.957031 C 339.144531 173.980469 339.164062 174 339.183594 174.019531 C 338.9375 174.347656 338.703125 174.6875 338.429688 174.972656 Z M 324.765625 194.171875 C 326.964844 197.5 329.707031 200.445312 332.871094 202.890625 C 333.136719 203.09375 333.460938 203.308594 333.816406 203.21875 C 334.117188 203.148438 334.320312 202.882812 334.457031 202.589844 C 337.480469 206.285156 338.984375 211.089844 338.15625 215.992188 C 337.796875 215.707031 337.429688 215.421875 337.058594 215.136719 C 336.660156 214.808594 336.253906 214.503906 335.855469 214.234375 C 335.835938 214.222656 335.816406 214.222656 335.796875 214.210938 C 330.121094 210.132812 323.125 206.65625 316.332031 206.832031 C 315.878906 206.847656 315.425781 206.898438 314.96875 206.949219 C 314.898438 206.9375 314.824219 206.945312 314.753906 206.964844 C 314.09375 207.050781 313.4375 207.167969 312.800781 207.355469 C 312.046875 207.570312 310.507812 208.699219 309.980469 208.777344 C 309.910156 208.753906 309.828125 208.746094 309.75 208.757812 C 309.519531 208.699219 309.269531 208.550781 309.085938 208.488281 C 307.164062 207.824219 306.917969 205.632812 307.378906 203.945312 C 308.042969 201.535156 309.75 199.351562 311.324219 197.480469 C 312.097656 196.5625 312.910156 195.675781 313.742188 194.8125 C 315.945312 193.992188 318.144531 193.175781 320.355469 192.355469 C 320.90625 192.148438 321.476562 191.941406 322.042969 191.96875 C 323.316406 192.023438 324.101562 193.167969 324.765625 194.171875 Z M 338.765625 220.816406 C 338.511719 221.332031 337.398438 222.640625 336.699219 222.648438 C 336.960938 222.644531 336.140625 222.117188 336.167969 222.136719 C 335.777344 221.847656 335.136719 221.722656 334.671875 221.589844 C 333.582031 221.269531 332.453125 221.109375 331.324219 221.058594 C 330.097656 221.003906 328.84375 221.082031 327.625 221.300781 C 327.425781 221.097656 327.226562 220.902344 327.054688 220.726562 C 323.828125 217.363281 320.359375 213.800781 323.285156 209.15625 C 324.101562 209.421875 324.90625 209.714844 325.691406 210.035156 C 329.882812 211.746094 333.945312 214.167969 337.507812 217 C 338.625 218.074219 339.460938 219.402344 338.765625 220.816406 Z M 326.726562 223.664062 C 326.105469 224.296875 323.503906 223.730469 322.753906 223.695312 C 320.640625 223.582031 318.835938 224.210938 316.871094 224.914062 C 315.4375 225.421875 312.625 226.714844 311.195312 225.847656 C 310.222656 225.257812 310.167969 223.835938 309.945312 222.933594 C 309.199219 219.921875 308.820312 217.339844 310.550781 214.601562 C 311.988281 212.335938 313.378906 210.0625 315.214844 208.09375 C 315.585938 208.054688 315.957031 208.019531 316.332031 208.007812 C 318.289062 207.957031 320.226562 208.300781 322.121094 208.828125 C 320.257812 211.972656 320.738281 215.171875 323.023438 218.132812 C 323.738281 219.058594 327.960938 222.390625 326.726562 223.664062 Z M 301.585938 221.410156 C 299.511719 221.539062 294.984375 220.570312 294.074219 218.542969 C 292.957031 216.046875 296.011719 214.234375 297.402344 212.65625 C 301.777344 213.191406 306.351562 212.171875 310.117188 209.855469 C 310.140625 209.84375 310.15625 209.820312 310.179688 209.800781 C 310.535156 209.660156 310.851562 209.402344 311.222656 209.21875 C 311.90625 208.875 312.628906 208.628906 313.367188 208.433594 C 311.945312 210.183594 310.75 212.09375 309.535156 214.007812 C 308.105469 216.257812 307.789062 217.824219 308.230469 220.277344 C 305.996094 220.195312 303.792969 221.269531 301.585938 221.410156 Z M 306.253906 192.808594 C 309.421875 191.160156 312.621094 189.558594 315.855469 188.03125 C 313.695312 189.511719 312 191.679688 311.128906 194.070312 C 310.953125 194.566406 310.859375 195.230469 311.308594 195.453125 C 311.320312 195.460938 311.332031 195.460938 311.34375 195.460938 C 309.546875 197.472656 307.96875 199.628906 306.875 201.996094 C 305.972656 203.941406 305.410156 206.375 306.851562 208.214844 C 307.191406 208.644531 307.753906 209.125 308.359375 209.472656 C 304.203125 211.632812 299.246094 212.246094 294.761719 210.910156 C 296.027344 203.726562 300.222656 196.898438 306.253906 192.808594 Z M 296.574219 160.339844 C 294.328125 163.144531 291.992188 165.882812 289.5625 168.53125 C 288.375 169.832031 287.113281 171.628906 285.632812 172.617188 C 285.464844 172.730469 284.578125 173.066406 283.558594 173.421875 C 284.535156 172.394531 285.5 171.363281 286.457031 170.316406 C 289.597656 166.875 292.621094 163.324219 295.476562 159.644531 C 301.503906 151.878906 308.289062 142.582031 309.523438 132.535156 C 309.960938 128.996094 309.347656 125.570312 307.394531 122.753906 C 319.472656 131.078125 302.667969 152.71875 296.574219 160.339844 Z M 280.054688 174.371094 C 279.105469 173.421875 281.597656 169.574219 282.078125 168.550781 C 282.824219 166.953125 283.390625 165.355469 283.941406 163.675781 C 286.480469 155.957031 292.03125 149.539062 297.113281 143.324219 C 299.796875 140.039062 303.839844 136.203125 304.804688 131.886719 C 305.1875 130.160156 304.539062 129.082031 304.21875 127.464844 C 303.859375 125.679688 305.058594 123.933594 305.410156 122.175781 C 311.875 129.070312 306.777344 139.960938 302.785156 146.882812 C 297.988281 155.1875 291.832031 162.710938 285.371094 169.765625 C 284.332031 170.890625 281.878906 172.621094 281.316406 174.136719 C 280.636719 174.332031 280.121094 174.445312 280.054688 174.371094 Z M 258.4375 91.097656 C 258.796875 91.464844 259.339844 91.859375 259.921875 92.117188 C 259.347656 92.140625 258.796875 92.1875 258.367188 92.265625 C 258 91.386719 257.609375 90.523438 257.210938 89.660156 C 257.59375 90.175781 258.015625 90.65625 258.4375 91.097656 Z M 340.6875 163.761719 C 335.863281 150.421875 324.484375 140.769531 312.3125 134.230469 C 313.222656 128.449219 311.582031 123.074219 305.402344 120.363281 C 305.355469 120.285156 305.304688 120.214844 305.257812 120.136719 C 305.253906 120.132812 305.253906 120.128906 305.25 120.128906 C 289.015625 94.535156 264.984375 74.515625 237.179688 63.128906 C 230.496094 57.546875 222.757812 53.230469 214.089844 50.699219 C 212.492188 50.230469 210.855469 49.789062 209.207031 49.554688 C 208.464844 49.449219 208.148438 50.582031 208.890625 50.6875 C 217.792969 51.953125 226.449219 56.1875 233.890625 61.828125 C 225.402344 58.59375 216.585938 56.15625 207.554688 54.601562 C 195.695312 52.570312 183.632812 52.164062 171.671875 53.480469 C 170.925781 53.5625 170.914062 54.742188 171.671875 54.65625 C 194.011719 52.195312 216.460938 55.855469 236.996094 64.320312 C 240.484375 67.289062 243.644531 70.539062 246.355469 73.898438 C 247.359375 75.148438 248.304688 76.441406 249.21875 77.753906 C 248.324219 77.9375 247.039062 78.542969 246.773438 78.933594 C 246.394531 79.472656 246.480469 80.230469 246.964844 80.617188 C 247.445312 81.003906 248.140625 80.875 248.511719 80.328125 C 248.742188 79.996094 249.4375 79.253906 249.835938 78.640625 C 250.167969 79.140625 250.492188 79.640625 250.816406 80.148438 C 249.957031 80.347656 249.09375 80.753906 248.324219 81.222656 C 247.96875 81.445312 247.523438 81.820312 247.195312 82.257812 C 246.683594 82.941406 246.429688 83.769531 247.171875 84.402344 C 247.722656 84.871094 248.605469 84.652344 249.144531 83.917969 C 249.5625 83.347656 250.800781 81.320312 251.027344 80.484375 C 252.3125 82.523438 253.496094 84.625 254.585938 86.777344 C 253.394531 86.941406 251.4375 87.839844 251.050781 88.394531 C 250.554688 89.121094 250.671875 90.132812 251.3125 90.648438 C 251.957031 91.164062 252.878906 90.992188 253.382812 90.265625 C 253.695312 89.804688 254.667969 88.777344 255.183594 87.953125 C 255.527344 88.65625 255.847656 89.375 256.171875 90.089844 C 255.117188 90.378906 254.070312 90.882812 253.132812 91.460938 C 252.652344 91.753906 252.0625 92.253906 251.621094 92.839844 C 250.933594 93.75 250.601562 94.859375 251.589844 95.703125 C 252.328125 96.332031 253.507812 96.039062 254.226562 95.054688 C 254.710938 94.394531 256.039062 92.246094 256.570312 90.964844 C 257.253906 92.523438 257.878906 94.113281 258.476562 95.710938 C 257.601562 96.929688 256.878906 98.324219 256.304688 99.695312 C 255.992188 100.453125 255.707031 101.53125 255.660156 102.566406 C 255.582031 104.171875 256.074219 105.664062 257.863281 105.640625 C 259.195312 105.621094 260.320312 104.21875 260.375 102.503906 C 260.40625 101.570312 260.304688 99.105469 260.058594 97.203125 C 260.101562 97.136719 260.136719 97.070312 260.144531 96.984375 C 260.238281 97.175781 260.332031 97.363281 260.429688 97.546875 C 260.71875 98.070312 261.207031 98.695312 261.773438 99.140625 C 262.660156 99.84375 263.738281 100.117188 264.550781 98.886719 C 265.15625 97.976562 264.871094 96.640625 263.90625 95.914062 C 263.820312 95.847656 263.699219 95.765625 263.570312 95.671875 C 264.039062 95.449219 264.398438 95.023438 264.496094 94.261719 C 264.636719 93.21875 263.839844 92.277344 262.710938 92.15625 C 262.535156 92.136719 262.261719 92.121094 261.9375 92.109375 C 262.191406 91.917969 262.410156 91.636719 262.5625 91.207031 C 262.914062 90.214844 262.347656 89.082031 261.292969 88.675781 C 260.375 88.328125 256.925781 87.390625 256.289062 87.738281 C 255.964844 87.078125 255.636719 86.421875 255.292969 85.769531 C 256.9375 86.636719 259.597656 87.292969 260.421875 86.992188 C 261.605469 86.566406 262.273438 85.167969 261.910156 83.863281 C 261.546875 82.5625 260.296875 81.847656 259.113281 82.277344 C 258.171875 82.621094 255.238281 83.0625 254.261719 83.890625 C 253.792969 83.054688 253.332031 82.214844 252.832031 81.402344 C 253.039062 81.542969 253.265625 81.671875 253.5 81.769531 C 254.234375 82.066406 255.03125 82.035156 255.386719 81.035156 C 255.652344 80.292969 255.226562 79.441406 254.433594 79.144531 C 253.8125 78.902344 251.644531 78.3125 250.890625 78.398438 C 247.738281 73.726562 244.097656 69.417969 240.003906 65.609375 C 257.410156 73.253906 273.351562 84.375 286.539062 98.171875 C 293.164062 105.097656 299.113281 112.65625 304.25 120.753906 C 304.820312 122.949219 302.46875 125.308594 302.964844 127.632812 C 303.375 129.558594 304.113281 130.648438 303.316406 132.695312 C 302.402344 135.058594 300.617188 137.144531 299.054688 139.09375 C 296.882812 141.800781 294.640625 144.457031 292.507812 147.199219 C 289.929688 150.515625 287.21875 153.929688 285.15625 157.597656 C 283.003906 161.414062 282.003906 165.847656 280.160156 169.824219 C 279.597656 171.039062 277.570312 174.507812 279.230469 175.527344 C 280.03125 176.019531 281.457031 175.109375 282.175781 174.890625 C 283.355469 174.527344 284.992188 174.429688 286.050781 173.800781 C 287.386719 173.003906 288.527344 171.378906 289.566406 170.257812 C 292.121094 167.515625 294.574219 164.679688 296.925781 161.769531 C 302.488281 154.878906 307.96875 147.386719 311.054688 139.011719 C 311.28125 138.394531 311.476562 137.773438 311.660156 137.152344 C 317.058594 150.859375 321.765625 164.816406 322.648438 179.453125 C 320.550781 179.664062 316.914062 181.890625 314.808594 183.375 C 311.90625 185.414062 309.449219 188.085938 307.082031 190.660156 C 306.929688 190.820312 306.789062 190.996094 306.640625 191.164062 C 299.664062 195.390625 294.75 203.128906 293.523438 211.183594 C 293.472656 211.511719 293.601562 211.796875 293.933594 211.90625 C 294.621094 212.136719 295.316406 212.320312 296.027344 212.460938 C 294.597656 213.914062 292.539062 215.132812 292.558594 217.363281 C 292.582031 219.542969 294.523438 220.90625 296.351562 221.585938 C 298.195312 222.269531 300.246094 222.773438 302.199219 222.503906 C 304.214844 222.21875 306.378906 221.316406 308.433594 221.457031 C 308.667969 223.222656 308.464844 225.558594 310.03125 226.617188 C 312.082031 228.003906 315.179688 226.773438 317.183594 226.046875 C 319.03125 225.378906 320.75 224.785156 322.753906 224.871094 C 323.644531 224.910156 324.484375 225.078125 325.382812 225.027344 C 326.332031 224.976562 327.867188 224.882812 328.46875 223.988281 C 328.847656 223.421875 328.742188 222.871094 328.457031 222.355469 C 330.503906 222.066406 332.714844 222.167969 334.632812 222.804688 C 336.507812 223.421875 336.816406 224.171875 338.363281 222.992188 C 340.734375 221.1875 340.390625 219.089844 339.09375 217.273438 C 339.101562 217.25 339.121094 217.242188 339.125 217.222656 C 340.472656 211.304688 338.625 205.429688 334.765625 201.152344 C 334.828125 200.394531 334.757812 199.632812 334.632812 198.894531 C 333.464844 191.859375 327.578125 184.949219 324.046875 179.882812 C 323.988281 179.800781 323.914062 179.742188 323.839844 179.683594 C 323.015625 165.125 318.425781 151.222656 313.085938 137.585938 C 313.300781 137.753906 313.515625 137.925781 313.730469 138.097656 C 316.296875 141.054688 318.4375 144.386719 320.136719 147.910156 C 321.570312 150.894531 322.679688 154.042969 323.375 157.285156 C 323.972656 160.066406 323.992188 162.929688 325.15625 165.5625 C 326.820312 169.308594 330.140625 172.394531 333.25 174.972656 C 334.335938 175.875 335.839844 177.226562 337.351562 177.226562 C 338.785156 177.226562 339.304688 175.863281 340.039062 174.8125 C 341.425781 175.875 342.460938 175.449219 342.550781 173.355469 C 342.691406 170.132812 341.769531 166.75 340.6875 163.761719 Z M 246.554688 309.953125 C 246.585938 309.886719 246.625 309.824219 246.652344 309.792969 C 246.785156 309.648438 247.234375 309.535156 247.222656 309.742188 C 247.21875 309.828125 246.8125 309.917969 246.554688 309.953125 Z M 245.289062 310.082031 C 245.257812 310.175781 245.257812 310.277344 245.277344 310.382812 C 245.28125 310.390625 245.277344 310.402344 245.277344 310.414062 C 245.3125 310.621094 245.425781 310.738281 245.566406 310.796875 C 246.492188 311.644531 248.785156 310.785156 248.339844 309.414062 C 247.765625 307.640625 245.382812 308.574219 245.289062 310.082031 Z M 271.066406 297.046875 C 270.992188 297.191406 270.613281 297.1875 270.496094 297.179688 C 270.367188 297.175781 270.210938 297.117188 270.113281 297.089844 C 270.21875 296.976562 270.355469 296.859375 270.460938 296.796875 C 270.613281 296.710938 271.300781 296.5625 271.066406 297.046875 Z M 270.730469 295.480469 C 270.09375 295.523438 269.285156 296.054688 268.980469 296.6875 C 268.921875 296.746094 268.886719 296.828125 268.863281 296.917969 C 268.863281 296.921875 268.863281 296.921875 268.859375 296.925781 C 268.859375 296.9375 268.863281 296.945312 268.859375 296.949219 C 268.851562 296.996094 268.835938 297.03125 268.835938 297.082031 C 268.839844 297.101562 268.851562 297.113281 268.851562 297.128906 C 268.859375 297.195312 268.878906 297.253906 268.902344 297.308594 C 269.253906 298.695312 271.890625 298.746094 272.214844 297.292969 C 272.414062 296.394531 271.65625 295.417969 270.730469 295.480469 Z M 212.820312 318.082031 C 212.722656 318.113281 212.613281 318.101562 212.691406 318.175781 C 212.492188 318 212.746094 317.378906 212.964844 317.214844 C 213.105469 317.292969 213.292969 317.503906 213.296875 317.617188 C 213.304688 317.824219 212.960938 318.03125 212.820312 318.082031 Z M 214.464844 317.546875 C 214.417969 316.875 213.792969 316.191406 213.105469 316.058594 C 213.042969 316.027344 212.976562 316.011719 212.898438 316.007812 C 212.886719 316.007812 212.878906 316 212.871094 316 C 212.84375 316 212.828125 316.015625 212.808594 316.015625 C 212.777344 316.019531 212.746094 316.015625 212.714844 316.023438 C 212.699219 316.027344 212.6875 316.039062 212.671875 316.042969 C 212.625 316.0625 212.585938 316.085938 212.546875 316.113281 C 211.355469 316.679688 210.914062 319.230469 212.582031 319.320312 C 213.484375 319.367188 214.53125 318.472656 214.464844 317.546875 Z M 231.433594 320.832031 C 231.480469 320.566406 231.792969 320.53125 232.066406 320.617188 C 232.796875 320.839844 232.40625 321.695312 231.976562 322.011719 C 232.132812 321.9375 231.832031 321.734375 231.722656 321.5625 C 231.625 321.40625 231.394531 321.035156 231.433594 320.832031 Z M 230.558594 319.894531 C 229.640625 320.855469 230.820312 323.136719 232.121094 323.113281 C 232.253906 323.160156 232.410156 323.148438 232.570312 323.03125 C 232.671875 322.984375 232.742188 322.917969 232.789062 322.84375 C 233.5625 322.148438 233.996094 321.046875 233.324219 320.105469 C 232.734375 319.28125 231.277344 319.136719 230.558594 319.894531 Z M 225.238281 318.261719 C 225.253906 317.921875 225.804688 316.847656 226.242188 317.449219 C 226.46875 317.757812 225.570312 318.332031 225.238281 318.261719 Z M 224.679688 316.726562 C 224.273438 317.195312 223.980469 318.046875 224.164062 318.695312 C 224.164062 318.765625 224.183594 318.832031 224.21875 318.902344 C 224.21875 318.914062 224.21875 318.929688 224.226562 318.941406 C 224.246094 318.980469 224.269531 318.996094 224.296875 319.023438 C 224.304688 319.035156 224.308594 319.050781 224.320312 319.0625 C 224.324219 319.070312 224.332031 319.074219 224.339844 319.082031 C 224.375 319.113281 224.40625 319.140625 224.441406 319.160156 C 225.722656 320.179688 228.480469 318.09375 227.1875 316.703125 C 226.503906 315.96875 225.320312 315.980469 224.679688 316.726562 Z M 213.710938 329.308594 C 213.710938 329.300781 213.707031 329.292969 213.710938 329.28125 C 213.722656 329.199219 213.703125 329.089844 213.707031 329.003906 C 213.714844 328.828125 213.753906 328.457031 213.878906 328.324219 C 214.050781 328.144531 214.261719 328.199219 214.421875 328.503906 C 214.683594 329.003906 214.140625 329.257812 213.710938 329.308594 Z M 213.726562 329.371094 C 213.722656 329.367188 213.714844 329.363281 213.710938 329.363281 C 213.710938 329.359375 213.710938 329.359375 213.710938 329.359375 C 213.714844 329.363281 213.726562 329.367188 213.726562 329.371094 Z M 213.75 327.015625 C 212.484375 327.203125 211.996094 329.847656 213.207031 330.394531 C 213.242188 330.417969 213.269531 330.433594 213.308594 330.449219 C 213.328125 330.457031 213.339844 330.472656 213.355469 330.476562 C 213.386719 330.480469 213.410156 330.476562 213.441406 330.476562 C 213.464844 330.484375 213.488281 330.496094 213.511719 330.496094 C 214.566406 330.527344 215.710938 329.859375 215.6875 328.683594 C 215.667969 327.746094 214.691406 326.878906 213.75 327.015625 Z M 207.902344 334.710938 C 207.464844 334.691406 207.4375 334.640625 207.765625 334.332031 C 207.917969 334.191406 208.109375 334.109375 208.304688 334.113281 C 208.335938 334.191406 208.382812 334.308594 208.371094 334.394531 C 208.335938 334.6875 208.210938 334.730469 207.902344 334.710938 Z M 209.007812 333.113281 C 208.980469 333.089844 208.964844 333.058594 208.933594 333.035156 C 208.835938 332.960938 208.742188 332.941406 208.648438 332.9375 C 207.019531 332.492188 205.238281 335.230469 207.320312 335.804688 C 208.15625 336.039062 209.199219 335.820312 209.484375 334.898438 C 209.660156 334.304688 209.492188 333.535156 209.011719 333.117188 C 209.011719 333.113281 209.011719 333.113281 209.007812 333.113281 Z M 193.324219 337.988281 C 193.121094 337.949219 192.929688 337.28125 192.96875 337 C 192.976562 337 192.988281 337.003906 192.992188 337.007812 C 193.117188 337.09375 193.261719 337.136719 193.367188 337.261719 C 193.519531 337.433594 193.601562 338.046875 193.324219 337.988281 Z M 192.839844 335.789062 C 192.761719 335.769531 192.683594 335.765625 192.597656 335.785156 C 192.585938 335.785156 192.570312 335.78125 192.554688 335.785156 C 192.363281 335.820312 192.242188 335.929688 192.183594 336.0625 C 191.242188 337.035156 192.175781 339.578125 193.640625 339.113281 C 195.605469 338.492188 194.523438 335.777344 192.839844 335.789062 Z M 240.109375 322.96875 C 240.046875 322.992188 239.980469 323 239.917969 323.015625 C 240.066406 322.730469 240.421875 322.175781 240.386719 322.578125 C 240.367188 322.8125 240.347656 322.859375 240.109375 322.96875 Z M 238.855469 323.703125 C 238.867188 323.804688 238.921875 323.902344 239.007812 323.988281 C 239.011719 323.992188 239.011719 323.996094 239.015625 324.003906 C 239.039062 324.027344 239.0625 324.035156 239.089844 324.054688 C 239.105469 324.066406 239.113281 324.085938 239.136719 324.097656 C 239.140625 324.097656 239.140625 324.097656 239.144531 324.097656 C 239.246094 324.15625 239.339844 324.195312 239.4375 324.1875 C 240.824219 324.574219 242.367188 322.765625 241.128906 321.574219 C 239.984375 320.472656 238.296875 322.480469 238.855469 323.703125 Z M 59.941406 152.246094 C 59.445312 153.089844 59.265625 152.054688 59.472656 151.78125 C 59.589844 151.765625 59.726562 151.78125 59.816406 151.832031 C 60.09375 151.972656 60.109375 151.960938 59.941406 152.246094 Z M 60.347656 153.503906 C 61.0625 153.003906 61.585938 151.957031 60.941406 151.203125 C 60.59375 150.792969 59.839844 150.507812 59.261719 150.621094 C 59.152344 150.609375 59.035156 150.628906 58.910156 150.714844 C 57.480469 151.753906 58.652344 154.6875 60.347656 153.503906 Z M 62.59375 145.925781 C 62.449219 145.855469 62.449219 145.480469 62.453125 145.359375 C 62.457031 145.242188 62.472656 145.117188 62.515625 145.003906 C 62.527344 144.988281 62.53125 144.984375 62.539062 144.96875 C 62.65625 145.070312 62.773438 145.214844 62.835938 145.316406 C 62.921875 145.46875 63.085938 146.152344 62.59375 145.925781 Z M 62.707031 143.722656 C 62.703125 143.71875 62.703125 143.71875 62.699219 143.71875 C 62.695312 143.714844 62.691406 143.71875 62.683594 143.71875 C 62.640625 143.710938 62.597656 143.691406 62.542969 143.695312 C 62.527344 143.695312 62.511719 143.710938 62.492188 143.710938 C 62.433594 143.71875 62.378906 143.738281 62.328125 143.761719 C 60.933594 144.109375 60.894531 146.753906 62.351562 147.074219 C 63.25 147.273438 64.214844 146.511719 64.152344 145.585938 C 64.109375 144.949219 63.574219 144.140625 62.945312 143.839844 C 62.882812 143.78125 62.800781 143.742188 62.707031 143.722656 Z M 70.238281 146.375 C 70.214844 146.511719 70.152344 146.671875 70.058594 146.746094 C 69.785156 146.957031 69.3125 146.5 69.425781 146.253906 C 69.511719 146.058594 70.097656 146.199219 70.238281 146.375 Z M 70.148438 148.035156 C 70.78125 147.894531 71.351562 147.152344 71.410156 146.480469 C 71.453125 146.375 71.472656 146.246094 71.417969 146.101562 C 71.40625 146.0625 71.378906 146.042969 71.363281 146.007812 C 70.757812 144.707031 68.125 144.601562 68.261719 146.359375 C 68.328125 147.222656 69.222656 148.238281 70.148438 148.035156 Z M 74.601562 126.289062 C 74.710938 126.398438 74.875 126.648438 74.878906 126.792969 C 74.878906 127.078125 74.164062 127.496094 73.984375 127.304688 C 73.785156 127.089844 74.265625 126.394531 74.601562 126.289062 Z M 73.800781 128.457031 C 74.738281 128.609375 75.984375 127.984375 76.050781 126.953125 C 76.09375 126.300781 75.644531 125.457031 75.003906 125.183594 C 74.964844 125.15625 74.917969 125.132812 74.867188 125.117188 C 74.859375 125.113281 74.847656 125.101562 74.835938 125.097656 C 74.8125 125.09375 74.796875 125.097656 74.773438 125.097656 C 74.742188 125.089844 74.714844 125.078125 74.679688 125.078125 C 74.65625 125.078125 74.636719 125.089844 74.613281 125.089844 C 74.585938 125.09375 74.558594 125.101562 74.535156 125.109375 C 73.019531 125.289062 71.882812 128.148438 73.800781 128.457031 Z M 67.128906 117.949219 C 67.125 118.035156 66.71875 118.125 66.460938 118.160156 C 66.496094 118.09375 66.53125 118.03125 66.558594 118 C 66.695312 117.855469 67.140625 117.742188 67.128906 117.949219 Z M 65.1875 118.585938 C 65.191406 118.597656 65.183594 118.609375 65.1875 118.621094 C 65.21875 118.828125 65.332031 118.945312 65.472656 119.003906 C 66.398438 119.851562 68.691406 118.992188 68.246094 117.621094 C 67.671875 115.847656 65.289062 116.78125 65.195312 118.289062 C 65.164062 118.382812 65.164062 118.484375 65.1875 118.585938 Z M 88.042969 103.144531 C 88.195312 103.054688 88.882812 102.90625 88.644531 103.390625 C 88.574219 103.535156 88.199219 103.53125 88.078125 103.523438 C 87.949219 103.519531 87.792969 103.460938 87.695312 103.4375 C 87.800781 103.320312 87.941406 103.203125 88.042969 103.144531 Z M 86.4375 103.476562 C 86.441406 103.539062 86.460938 103.597656 86.484375 103.652344 C 86.832031 105.042969 89.472656 105.09375 89.792969 103.636719 C 89.996094 102.738281 89.238281 101.769531 88.3125 101.828125 C 87.675781 101.867188 86.867188 102.402344 86.566406 103.035156 C 86.507812 103.09375 86.46875 103.171875 86.449219 103.261719 C 86.445312 103.265625 86.445312 103.269531 86.441406 103.273438 C 86.441406 103.28125 86.445312 103.289062 86.441406 103.300781 C 86.433594 103.339844 86.417969 103.378906 86.421875 103.429688 C 86.421875 103.449219 86.433594 103.460938 86.4375 103.476562 Z M 175.9375 323.917969 C 176.046875 323.984375 176.058594 324.257812 176.050781 324.4375 C 175.972656 324.371094 175.894531 324.304688 175.871094 324.257812 C 175.800781 324.101562 175.839844 323.859375 175.9375 323.917969 Z M 176.121094 325.753906 C 176.144531 325.757812 176.167969 325.773438 176.183594 325.773438 C 176.382812 325.796875 176.527344 325.734375 176.617188 325.625 C 177.691406 325.039062 177.292969 322.765625 175.972656 322.730469 C 175.125 322.714844 174.410156 323.554688 174.621094 324.375 C 174.78125 324.988281 175.375 325.546875 175.992188 325.714844 C 176.035156 325.734375 176.074219 325.746094 176.121094 325.753906 Z M 179.5 333.832031 C 179.703125 333.90625 179.753906 334.332031 179.765625 334.511719 C 179.773438 334.648438 179.777344 334.800781 179.730469 334.933594 C 179.71875 334.972656 179.71875 334.972656 179.714844 334.992188 C 179.648438 334.953125 179.550781 334.90625 179.523438 334.878906 C 179.40625 334.785156 179.277344 334.664062 179.1875 334.535156 C 179.027344 334.292969 179.011719 333.652344 179.5 333.832031 Z M 179.453125 332.644531 C 178.464844 332.644531 177.632812 333.625 177.910156 334.589844 C 178.109375 335.300781 178.871094 336.0625 179.628906 336.207031 C 179.648438 336.210938 179.660156 336.21875 179.679688 336.222656 C 179.703125 336.222656 179.734375 336.242188 179.757812 336.246094 C 179.933594 336.261719 180.066406 336.203125 180.160156 336.117188 C 181.523438 335.527344 181.03125 332.644531 179.453125 332.644531 Z M 66.785156 133.933594 C 67.070312 134.144531 66.980469 134.429688 66.746094 134.65625 C 66.675781 134.550781 66.394531 134.222656 66.402344 134.027344 C 66.410156 133.757812 66.523438 133.742188 66.785156 133.933594 Z M 65.59375 132.984375 C 64.636719 133.746094 65.640625 135.992188 66.820312 135.878906 C 66.945312 135.90625 67.085938 135.882812 67.226562 135.777344 C 67.949219 135.238281 68.460938 134.296875 67.96875 133.410156 C 67.511719 132.601562 66.316406 132.402344 65.59375 132.984375 Z M 61.972656 131.261719 C 62.074219 131.328125 61.964844 131.390625 61.800781 131.507812 C 61.738281 131.558594 61.59375 131.628906 61.46875 131.683594 C 61.480469 131.632812 61.488281 131.582031 61.503906 131.542969 C 61.589844 131.339844 61.714844 131.105469 61.972656 131.261719 Z M 60.359375 132.429688 C 60.367188 132.4375 60.363281 132.449219 60.371094 132.457031 C 60.394531 132.503906 60.425781 132.53125 60.457031 132.5625 C 60.460938 132.566406 60.460938 132.570312 60.460938 132.574219 C 60.460938 132.574219 60.460938 132.574219 60.460938 132.578125 C 60.550781 132.671875 60.644531 132.730469 60.753906 132.746094 C 61.949219 133.34375 64.019531 131.6875 62.933594 130.519531 C 61.761719 129.257812 59.941406 130.75 60.289062 132.152344 C 60.28125 132.246094 60.3125 132.339844 60.359375 132.429688 Z M 52.441406 136.84375 C 52.515625 136.546875 52.671875 136.199219 52.949219 136.027344 C 53.574219 135.636719 53.753906 136.242188 53.496094 136.699219 C 53.171875 137.019531 52.210938 137.726562 52.441406 136.84375 Z M 51.804688 138.355469 C 52.675781 138.828125 53.8125 138.109375 54.386719 137.472656 C 54.410156 137.453125 54.414062 137.425781 54.429688 137.40625 C 54.445312 137.386719 54.46875 137.375 54.480469 137.355469 C 55.03125 136.535156 54.992188 135.355469 54.011719 134.882812 C 53.015625 134.402344 51.960938 135.085938 51.515625 135.980469 C 51.160156 136.699219 50.953125 137.890625 51.804688 138.355469 Z M 78.394531 222.589844 C 80.636719 219.78125 82.976562 217.046875 85.402344 214.394531 C 86.59375 213.09375 87.855469 211.300781 89.335938 210.3125 C 89.503906 210.199219 90.390625 209.855469 91.40625 209.507812 C 90.433594 210.535156 89.46875 211.5625 88.511719 212.609375 C 85.367188 216.050781 82.347656 219.605469 79.492188 223.285156 C 73.460938 231.046875 66.679688 240.34375 65.445312 250.394531 C 65.007812 253.929688 65.621094 257.355469 67.574219 260.175781 C 55.496094 251.851562 72.300781 230.207031 78.394531 222.589844 Z M 36.804688 222.1875 C 35.363281 219.140625 34.25 215.863281 33.78125 212.519531 C 33.652344 211.5625 33.417969 210.351562 33.601562 209.382812 C 33.867188 207.976562 33.75 208.382812 35.011719 209.800781 C 35.085938 209.886719 35.167969 209.929688 35.25 209.957031 C 35.230469 210.175781 35.207031 210.390625 35.1875 210.605469 C 35.175781 210.667969 35.183594 210.734375 35.195312 210.800781 C 35.21875 210.953125 35.289062 211.0625 35.398438 211.132812 C 36.625 212.328125 37.449219 214.632812 38.296875 216.074219 C 40.433594 219.714844 42.628906 223.316406 44.945312 226.847656 C 49.292969 233.472656 54.082031 240.546875 60.332031 245.617188 C 60.617188 245.945312 60.925781 246.242188 61.21875 246.558594 C 51.097656 240.785156 41.871094 232.878906 36.804688 222.1875 Z M 39 207.4375 C 40.660156 208.34375 42.027344 209.789062 43.378906 211.085938 C 45.082031 212.71875 46.800781 214.367188 48.003906 216.425781 C 49.496094 218.984375 49.679688 221.628906 50.171875 224.480469 C 51.136719 230.011719 53.289062 235.449219 56.347656 240.273438 C 51.898438 235.472656 48.210938 229.78125 44.796875 224.453125 C 42.726562 221.230469 40.75 217.949219 38.820312 214.644531 C 38.09375 213.390625 37.398438 211.585938 36.375 210.476562 C 36.53125 208.710938 36.636719 206.144531 39 207.4375 Z M 50.203125 188.753906 C 48.003906 185.429688 45.265625 182.484375 42.097656 180.039062 C 41.832031 179.832031 41.507812 179.621094 41.152344 179.707031 C 40.851562 179.78125 40.644531 180.046875 40.511719 180.332031 C 37.484375 176.640625 35.984375 171.839844 36.808594 166.9375 C 37.167969 167.21875 37.535156 167.503906 37.910156 167.785156 C 38.304688 168.117188 38.714844 168.417969 39.113281 168.691406 C 39.132812 168.707031 39.148438 168.707031 39.171875 168.71875 C 44.847656 172.789062 51.847656 176.269531 58.636719 176.09375 C 59.089844 176.082031 59.542969 176.03125 59.996094 175.980469 C 60.070312 175.992188 60.144531 175.984375 60.214844 175.960938 C 60.875 175.875 61.53125 175.753906 62.167969 175.574219 C 62.921875 175.355469 64.457031 174.226562 64.984375 174.152344 C 65.058594 174.171875 65.140625 174.179688 65.21875 174.167969 C 65.449219 174.226562 65.699219 174.375 65.878906 174.4375 C 67.800781 175.105469 68.050781 177.289062 67.585938 178.980469 C 66.925781 181.390625 65.21875 183.578125 63.644531 185.445312 C 62.871094 186.367188 62.058594 187.25 61.226562 188.117188 C 59.023438 188.933594 56.820312 189.753906 54.613281 190.570312 C 54.0625 190.773438 53.492188 190.984375 52.917969 190.960938 C 51.652344 190.90625 50.863281 189.761719 50.203125 188.753906 Z M 36.203125 162.113281 C 36.457031 161.597656 37.570312 160.285156 38.265625 160.28125 C 38.003906 160.28125 38.824219 160.8125 38.800781 160.789062 C 39.191406 161.082031 39.832031 161.203125 40.296875 161.34375 C 41.382812 161.660156 42.515625 161.816406 43.644531 161.871094 C 44.867188 161.925781 46.125 161.84375 47.339844 161.621094 C 47.542969 161.828125 47.742188 162.027344 47.910156 162.199219 C 51.140625 165.566406 54.609375 169.128906 51.683594 173.773438 C 50.867188 173.507812 50.058594 173.210938 49.277344 172.890625 C 45.085938 171.179688 41.019531 168.761719 37.460938 165.929688 C 36.339844 164.855469 35.503906 163.523438 36.203125 162.113281 Z M 48.238281 159.265625 C 48.863281 158.628906 51.464844 159.191406 52.214844 159.234375 C 54.324219 159.34375 56.132812 158.714844 58.097656 158.015625 C 59.527344 157.503906 62.339844 156.214844 63.769531 157.078125 C 64.746094 157.664062 64.804688 159.089844 65.027344 159.988281 C 65.765625 163.007812 66.148438 165.585938 64.414062 168.324219 C 62.980469 170.589844 61.589844 172.867188 59.753906 174.835938 C 59.378906 174.875 59.003906 174.90625 58.636719 174.917969 C 56.679688 174.964844 54.738281 174.628906 52.847656 174.101562 C 54.710938 170.953125 54.226562 167.757812 51.941406 164.792969 C 51.230469 163.871094 47.007812 160.535156 48.238281 159.265625 Z M 73.378906 161.515625 C 75.457031 161.386719 79.984375 162.355469 80.894531 164.386719 C 82.011719 166.882812 78.957031 168.691406 77.566406 170.265625 C 73.191406 169.734375 68.617188 170.757812 64.851562 173.066406 C 64.824219 173.085938 64.8125 173.105469 64.789062 173.125 C 64.433594 173.265625 64.113281 173.527344 63.742188 173.707031 C 63.058594 174.054688 62.335938 174.300781 61.601562 174.492188 C 63.023438 172.742188 64.214844 170.835938 65.429688 168.917969 C 66.859375 166.671875 67.175781 165.101562 66.738281 162.652344 C 68.96875 162.730469 71.171875 161.660156 73.378906 161.515625 Z M 68.714844 190.121094 C 65.546875 191.765625 62.351562 193.363281 59.109375 194.894531 C 61.273438 193.414062 62.964844 191.246094 63.839844 188.859375 C 64.015625 188.359375 64.105469 187.699219 63.660156 187.472656 C 63.648438 187.46875 63.632812 187.46875 63.625 187.464844 C 65.421875 185.453125 67 183.296875 68.09375 180.933594 C 68.992188 178.988281 69.558594 176.550781 68.117188 174.714844 C 67.777344 174.28125 67.214844 173.800781 66.605469 173.457031 C 70.761719 171.292969 75.726562 170.679688 80.203125 172.015625 C 78.941406 179.203125 74.746094 186.027344 68.714844 190.121094 Z M 94.914062 208.554688 C 95.863281 209.507812 93.367188 213.355469 92.890625 214.378906 C 92.140625 215.972656 91.578125 217.574219 91.027344 219.25 C 88.488281 226.972656 82.933594 233.386719 77.855469 239.601562 C 75.171875 242.886719 71.125 246.722656 70.164062 251.039062 C 69.773438 252.765625 70.429688 253.847656 70.75 255.460938 C 71.105469 257.25 69.910156 258.992188 69.558594 260.75 C 63.09375 253.859375 68.191406 242.964844 72.183594 236.046875 C 76.980469 227.738281 83.132812 220.214844 89.597656 213.164062 C 90.632812 212.03125 93.089844 210.308594 93.648438 208.789062 C 94.332031 208.59375 94.84375 208.480469 94.914062 208.554688 Z M 116.527344 291.832031 C 116.171875 291.464844 115.628906 291.070312 115.046875 290.808594 C 115.621094 290.785156 116.167969 290.738281 116.601562 290.664062 C 116.96875 291.539062 117.355469 292.40625 117.753906 293.265625 C 117.375 292.75 116.957031 292.269531 116.527344 291.832031 Z M 203.296875 328.269531 C 180.953125 330.734375 158.507812 327.074219 137.972656 318.605469 C 134.484375 315.640625 131.320312 312.390625 128.609375 309.023438 C 127.601562 307.777344 126.660156 306.488281 125.746094 305.171875 C 126.644531 304.992188 127.929688 304.382812 128.195312 303.996094 C 128.570312 303.449219 128.484375 302.695312 128.003906 302.3125 C 127.523438 301.921875 126.828125 302.054688 126.453125 302.597656 C 126.226562 302.933594 125.527344 303.675781 125.132812 304.285156 C 124.796875 303.789062 124.476562 303.285156 124.152344 302.78125 C 125.011719 302.582031 125.875 302.171875 126.644531 301.699219 C 127 301.480469 127.441406 301.109375 127.773438 300.671875 C 128.285156 299.988281 128.535156 299.160156 127.796875 298.527344 C 127.242188 298.054688 126.359375 298.269531 125.820312 299.007812 C 125.40625 299.582031 124.167969 301.601562 123.941406 302.441406 C 122.65625 300.402344 121.46875 298.304688 120.382812 296.152344 C 121.570312 295.988281 123.53125 295.085938 123.910156 294.53125 C 124.414062 293.804688 124.296875 292.792969 123.652344 292.277344 C 123.011719 291.765625 122.085938 291.9375 121.585938 292.664062 C 121.273438 293.121094 120.300781 294.152344 119.785156 294.976562 C 119.441406 294.269531 119.117188 293.554688 118.796875 292.835938 C 119.847656 292.550781 120.894531 292.042969 121.835938 291.464844 C 122.316406 291.171875 122.90625 290.671875 123.34375 290.089844 C 124.035156 289.179688 124.367188 288.066406 123.378906 287.226562 C 122.640625 286.597656 121.460938 286.886719 120.738281 287.871094 C 120.257812 288.53125 118.933594 290.679688 118.394531 291.964844 C 117.714844 290.402344 117.089844 288.816406 116.492188 287.214844 C 117.363281 285.996094 118.085938 284.605469 118.660156 283.234375 C 118.980469 282.476562 119.261719 281.394531 119.308594 280.363281 C 119.382812 278.757812 118.894531 277.265625 117.105469 277.285156 C 115.773438 277.304688 114.648438 278.707031 114.59375 280.425781 C 114.566406 281.355469 114.664062 283.820312 114.90625 285.722656 C 114.863281 285.785156 114.832031 285.859375 114.824219 285.941406 C 114.730469 285.753906 114.636719 285.558594 114.539062 285.382812 C 114.25 284.859375 113.761719 284.234375 113.191406 283.785156 C 112.304688 283.082031 111.226562 282.8125 110.417969 284.035156 C 109.808594 284.953125 110.101562 286.285156 111.058594 287.015625 C 111.148438 287.082031 111.265625 287.164062 111.398438 287.253906 C 110.929688 287.472656 110.570312 287.90625 110.46875 288.667969 C 110.332031 289.710938 111.128906 290.652344 112.253906 290.773438 C 112.433594 290.789062 112.707031 290.808594 113.027344 290.816406 C 112.773438 291.007812 112.558594 291.289062 112.40625 291.71875 C 112.050781 292.714844 112.617188 293.84375 113.675781 294.25 C 114.589844 294.597656 118.039062 295.535156 118.679688 295.191406 C 119.003906 295.847656 119.328125 296.507812 119.675781 297.15625 C 118.027344 296.292969 115.371094 295.632812 114.542969 295.9375 C 113.363281 296.363281 112.699219 297.761719 113.058594 299.0625 C 113.417969 300.367188 114.671875 301.074219 115.855469 300.644531 C 116.796875 300.308594 119.730469 299.863281 120.707031 299.039062 C 121.175781 299.875 121.636719 300.710938 122.136719 301.527344 C 121.929688 301.382812 121.703125 301.253906 121.464844 301.160156 C 120.730469 300.859375 119.9375 300.894531 119.582031 301.890625 C 119.316406 302.636719 119.742188 303.484375 120.53125 303.785156 C 121.152344 304.019531 123.324219 304.617188 124.078125 304.53125 C 127.230469 309.203125 130.871094 313.507812 134.964844 317.320312 C 117.554688 309.671875 101.617188 298.554688 88.429688 284.757812 C 81.804688 277.824219 75.851562 270.269531 70.71875 262.175781 C 70.148438 259.980469 72.5 257.617188 72.003906 255.292969 C 71.589844 253.371094 70.855469 252.277344 71.648438 250.234375 C 72.566406 247.867188 74.347656 245.785156 75.910156 243.835938 C 78.085938 241.125 80.324219 238.472656 82.457031 235.730469 C 85.039062 232.414062 87.75 228.996094 89.8125 225.332031 C 91.964844 221.511719 92.960938 217.078125 94.808594 213.105469 C 95.375 211.890625 97.398438 208.421875 95.738281 207.402344 C 94.9375 206.90625 93.511719 207.816406 92.789062 208.035156 C 91.609375 208.398438 89.976562 208.496094 88.917969 209.125 C 87.582031 209.921875 86.441406 211.546875 85.398438 212.667969 C 82.847656 215.40625 80.394531 218.242188 78.039062 221.160156 C 72.476562 228.046875 67 235.535156 63.914062 243.914062 C 63.683594 244.535156 63.488281 245.15625 63.308594 245.773438 C 57.910156 232.066406 53.203125 218.113281 52.320312 203.472656 C 54.417969 203.261719 58.054688 201.035156 60.160156 199.554688 C 63.058594 197.515625 65.519531 194.839844 67.886719 192.269531 C 68.039062 192.105469 68.179688 191.929688 68.324219 191.765625 C 75.304688 187.539062 80.21875 179.800781 81.445312 171.742188 C 81.496094 171.417969 81.363281 171.128906 81.035156 171.019531 C 80.347656 170.789062 79.648438 170.609375 78.941406 170.46875 C 80.371094 169.011719 82.429688 167.789062 82.40625 165.5625 C 82.390625 163.386719 80.445312 162.019531 78.609375 161.34375 C 76.777344 160.660156 74.722656 160.152344 72.769531 160.425781 C 70.753906 160.707031 68.589844 161.613281 66.535156 161.46875 C 66.300781 159.707031 66.5 157.371094 64.933594 156.308594 C 62.886719 154.921875 59.785156 156.15625 57.785156 156.878906 C 55.933594 157.550781 54.21875 158.140625 52.214844 158.058594 C 51.324219 158.019531 50.480469 157.851562 49.585938 157.902344 C 48.636719 157.953125 47.09375 158.042969 46.5 158.9375 C 46.117188 159.503906 46.222656 160.058594 46.511719 160.570312 C 44.464844 160.863281 42.253906 160.761719 40.335938 160.125 C 38.460938 159.503906 38.148438 158.757812 36.605469 159.929688 C 34.234375 161.742188 34.574219 163.832031 35.871094 165.65625 C 35.863281 165.671875 35.851562 165.683594 35.84375 165.707031 C 34.496094 171.625 36.34375 177.496094 40.203125 181.777344 C 40.144531 182.535156 40.210938 183.292969 40.335938 184.03125 C 41.507812 191.066406 47.390625 197.980469 50.921875 203.046875 C 50.980469 203.125 51.050781 203.183594 51.128906 203.246094 C 51.953125 217.804688 56.542969 231.710938 61.882812 245.34375 C 61.710938 245.214844 61.542969 245.074219 61.371094 244.941406 C 58.257812 241.390625 55.734375 237.304688 53.910156 232.960938 C 52.535156 229.675781 51.59375 226.265625 51.097656 222.738281 C 50.710938 219.976562 50.132812 217.492188 48.582031 215.132812 C 46.480469 211.941406 42.773438 208.015625 39.308594 206.253906 C 36.695312 204.925781 35.824219 206.539062 35.445312 208.570312 C 33.804688 206.964844 32.519531 207.21875 32.417969 209.574219 C 32.273438 212.796875 33.199219 216.179688 34.28125 219.167969 C 39.105469 232.503906 50.480469 242.160156 62.652344 248.699219 C 61.746094 254.480469 63.382812 259.851562 69.5625 262.566406 C 69.613281 262.640625 69.664062 262.714844 69.710938 262.789062 C 69.714844 262.792969 69.714844 262.796875 69.714844 262.796875 C 85.949219 288.394531 109.984375 308.414062 137.789062 319.800781 C 144.472656 325.378906 152.210938 329.695312 160.878906 332.226562 C 162.476562 332.691406 164.109375 333.140625 165.761719 333.375 C 166.5 333.480469 166.820312 332.34375 166.074219 332.238281 C 157.175781 330.972656 148.519531 326.738281 141.074219 321.09375 C 149.5625 324.332031 158.378906 326.773438 167.414062 328.324219 C 179.273438 330.359375 191.335938 330.765625 203.296875 329.445312 C 204.039062 329.367188 204.046875 328.1875 203.296875 328.269531 "/></g><path style="fill:none;stroke-width:2;stroke-linecap:butt;stroke-linejoin:miter;stroke:#000000;stroke-opacity:1;stroke-miterlimit:4;" d="M 0.000973654 1.000557 L 170.059064 1.002065 " transform="matrix(0.00630045,0.749767,-0.749767,0.00630045,188.246272,124.508591)"/><g style="fill:#000000;fill-opacity:1;"><g transform="translate(49.200686, 87.449616)"><path style="stroke:none" d="M -12.671875 -13.09375 L -0.125 -9.890625 L 4.875 -5.140625 L 6.5 -6.84375 L 1.328125 -11.75 L -2.3125 -24.015625 L -3.265625 -23 L -0.15625 -12.34375 L -0.21875 -12.28125 L -10.828125 -15.03125 Z M -12.671875 -13.09375 "/></g></g><g style="fill:#000000;fill-opacity:1;"><g transform="translate(64.09669, 72.177466)"><path style="stroke:none" d="M -9.3125 -15.953125 L 2.390625 -2.015625 L 11.390625 -9.5625 L 10.46875 -10.65625 L 3.28125 -4.625 L -1.609375 -10.453125 L 4.5625 -15.640625 L 3.78125 -16.5625 L -2.390625 -11.375 L -6.578125 -16.375 L 0.609375 -22.40625 L -0.3125 -23.5 Z M -9.3125 -15.953125 "/></g></g><g style="fill:#000000;fill-opacity:1;"><g transform="translate(79.863663, 59.261642)"><path style="stroke:none" d="M -1.734375 -4.375 C -1.296875 -3.769531 -0.757812 -3.3125 -0.125 -3 C 0.5 -2.6875 1.179688 -2.523438 1.921875 -2.515625 C 2.671875 -2.503906 3.457031 -2.628906 4.28125 -2.890625 C 5.101562 -3.148438 5.925781 -3.554688 6.75 -4.109375 C 7.582031 -4.660156 8.269531 -5.257812 8.8125 -5.90625 C 9.351562 -6.5625 9.734375 -7.234375 9.953125 -7.921875 C 10.179688 -8.617188 10.25 -9.320312 10.15625 -10.03125 C 10.0625 -10.738281 9.800781 -11.414062 9.375 -12.0625 C 8.78125 -12.957031 8.066406 -13.539062 7.234375 -13.8125 C 6.410156 -14.09375 5.535156 -14.195312 4.609375 -14.125 C 3.679688 -14.0625 2.738281 -13.898438 1.78125 -13.640625 C 0.832031 -13.378906 -0.0703125 -13.164062 -0.9375 -13 C -1.800781 -12.84375 -2.582031 -12.804688 -3.28125 -12.890625 C -3.976562 -12.972656 -4.53125 -13.328125 -4.9375 -13.953125 C -5.164062 -14.285156 -5.304688 -14.65625 -5.359375 -15.0625 C -5.410156 -15.46875 -5.363281 -15.878906 -5.21875 -16.296875 C -5.082031 -16.722656 -4.835938 -17.148438 -4.484375 -17.578125 C -4.140625 -18.003906 -3.6875 -18.40625 -3.125 -18.78125 C -2.1875 -19.394531 -1.253906 -19.722656 -0.328125 -19.765625 C 0.585938 -19.804688 1.378906 -19.4375 2.046875 -18.65625 L 3.53125 -19.640625 C 3.09375 -20.117188 2.578125 -20.46875 1.984375 -20.6875 C 1.398438 -20.914062 0.78125 -21.023438 0.125 -21.015625 C -0.53125 -21.003906 -1.203125 -20.878906 -1.890625 -20.640625 C -2.585938 -20.398438 -3.253906 -20.070312 -3.890625 -19.65625 C -4.546875 -19.207031 -5.113281 -18.695312 -5.59375 -18.125 C -6.070312 -17.5625 -6.425781 -16.960938 -6.65625 -16.328125 C -6.894531 -15.691406 -6.984375 -15.03125 -6.921875 -14.34375 C -6.859375 -13.664062 -6.609375 -13.003906 -6.171875 -12.359375 C -5.609375 -11.503906 -4.9375 -10.957031 -4.15625 -10.71875 C -3.382812 -10.488281 -2.550781 -10.414062 -1.65625 -10.5 C -0.769531 -10.59375 0.132812 -10.769531 1.0625 -11.03125 C 1.988281 -11.300781 2.878906 -11.5 3.734375 -11.625 C 4.597656 -11.75 5.394531 -11.726562 6.125 -11.5625 C 6.863281 -11.40625 7.488281 -10.945312 8 -10.1875 C 8.613281 -9.25 8.722656 -8.335938 8.328125 -7.453125 C 7.929688 -6.566406 7.164062 -5.75 6.03125 -5 C 5.113281 -4.382812 4.300781 -4.015625 3.59375 -3.890625 C 2.882812 -3.765625 2.273438 -3.773438 1.765625 -3.921875 C 1.265625 -4.066406 0.84375 -4.28125 0.5 -4.5625 C 0.164062 -4.84375 -0.0859375 -5.109375 -0.265625 -5.359375 Z M -1.734375 -4.375 "/></g></g><g style="fill:#000000;fill-opacity:1;"><g transform="translate(97.30369, 47.816289)"><path style="stroke:none" d="M 0.921875 -10.53125 L 10.6875 -15.34375 L 14.6875 -7.234375 L 16.8125 -8.296875 L 8.765625 -24.625 L 6.640625 -23.5625 L 10.15625 -16.421875 L 0.390625 -11.609375 L -3.125 -18.75 L -5.25 -17.703125 L 2.796875 -1.375 L 4.921875 -2.421875 Z M 0.921875 -10.53125 "/></g></g><g style="fill:#000000;fill-opacity:1;"><g transform="translate(121.161191, 36.506364)"><path style="stroke:none" d="M 10.84375 -9.265625 L 14.921875 -4.984375 L 17.3125 -5.78125 L 3.515625 -20.359375 L 2.265625 -19.953125 L 0.734375 -0.25 L 1.875 -0.625 L 2.34375 -6.421875 Z M 9.96875 -10.203125 L 2.453125 -7.703125 L 3.21875 -17.1875 L 3.328125 -17.234375 Z M 9.96875 -10.203125 "/></g></g><g style="fill:#000000;fill-opacity:1;"><g transform="translate(143.916743, 29.432401)"><path style="stroke:none" d=""/></g></g><g style="fill:#000000;fill-opacity:1;"><g transform="translate(157.517689, 26.401367)"><path style="stroke:none" d="M 12.921875 -3.125 C 11.972656 -2.226562 11.09375 -1.613281 10.28125 -1.28125 C 9.46875 -0.957031 8.707031 -0.753906 8 -0.671875 C 6.957031 -0.546875 6.019531 -0.578125 5.1875 -0.765625 C 4.351562 -0.960938 3.632812 -1.257812 3.03125 -1.65625 C 2.4375 -2.0625 1.960938 -2.550781 1.609375 -3.125 C 1.265625 -3.695312 1.054688 -4.296875 0.984375 -4.921875 C 0.898438 -5.566406 0.953125 -6.179688 1.140625 -6.765625 C 1.328125 -7.347656 1.609375 -7.898438 1.984375 -8.421875 C 2.367188 -8.953125 2.832031 -9.441406 3.375 -9.890625 C 3.914062 -10.347656 4.507812 -10.78125 5.15625 -11.1875 C 4.5 -11.90625 3.941406 -12.5625 3.484375 -13.15625 C 3.023438 -13.757812 2.753906 -14.421875 2.671875 -15.140625 C 2.617188 -15.566406 2.632812 -16.015625 2.71875 -16.484375 C 2.8125 -16.960938 2.992188 -17.40625 3.265625 -17.8125 C 3.535156 -18.21875 3.90625 -18.5625 4.375 -18.84375 C 4.84375 -19.132812 5.421875 -19.320312 6.109375 -19.40625 C 6.640625 -19.46875 7.144531 -19.441406 7.625 -19.328125 C 8.113281 -19.210938 8.550781 -19.007812 8.9375 -18.71875 C 9.320312 -18.4375 9.644531 -18.078125 9.90625 -17.640625 C 10.164062 -17.210938 10.328125 -16.710938 10.390625 -16.140625 C 10.484375 -15.421875 10.328125 -14.679688 9.921875 -13.921875 C 9.515625 -13.171875 8.738281 -12.4375 7.59375 -11.71875 L 13.5625 -5.578125 C 13.976562 -6.328125 14.273438 -7.160156 14.453125 -8.078125 C 14.628906 -9.003906 14.660156 -10.15625 14.546875 -11.53125 L 16.5625 -11.78125 C 16.582031 -10.832031 16.503906 -9.972656 16.328125 -9.203125 C 16.148438 -8.429688 15.9375 -7.742188 15.6875 -7.140625 C 15.4375 -6.535156 15.179688 -6.03125 14.921875 -5.625 C 14.660156 -5.21875 14.460938 -4.921875 14.328125 -4.734375 L 17.03125 -2.046875 L 14.296875 -1.71875 Z M 6.375 -18.28125 C 6 -18.226562 5.6875 -18.117188 5.4375 -17.953125 C 5.1875 -17.796875 4.984375 -17.601562 4.828125 -17.375 C 4.679688 -17.15625 4.582031 -16.910156 4.53125 -16.640625 C 4.488281 -16.378906 4.484375 -16.117188 4.515625 -15.859375 C 4.585938 -15.253906 4.847656 -14.6875 5.296875 -14.15625 C 5.742188 -13.625 6.28125 -13.050781 6.90625 -12.4375 C 7.125 -12.582031 7.351562 -12.773438 7.59375 -13.015625 C 7.832031 -13.253906 8.046875 -13.53125 8.234375 -13.84375 C 8.421875 -14.15625 8.566406 -14.5 8.671875 -14.875 C 8.773438 -15.257812 8.800781 -15.671875 8.75 -16.109375 C 8.726562 -16.328125 8.664062 -16.570312 8.5625 -16.84375 C 8.457031 -17.125 8.3125 -17.375 8.125 -17.59375 C 7.9375 -17.820312 7.703125 -18.003906 7.421875 -18.140625 C 7.140625 -18.273438 6.789062 -18.320312 6.375 -18.28125 Z M 5.90625 -10.375 C 4.726562 -9.570312 3.9375 -8.820312 3.53125 -8.125 C 3.132812 -7.4375 2.984375 -6.703125 3.078125 -5.921875 C 3.160156 -5.222656 3.382812 -4.617188 3.75 -4.109375 C 4.113281 -3.597656 4.550781 -3.175781 5.0625 -2.84375 C 5.570312 -2.519531 6.128906 -2.296875 6.734375 -2.171875 C 7.335938 -2.054688 7.925781 -2.03125 8.5 -2.09375 C 8.632812 -2.113281 8.84375 -2.148438 9.125 -2.203125 C 9.40625 -2.253906 9.71875 -2.347656 10.0625 -2.484375 C 10.414062 -2.617188 10.773438 -2.796875 11.140625 -3.015625 C 11.515625 -3.234375 11.863281 -3.519531 12.1875 -3.875 Z M 5.90625 -10.375 "/></g></g><g style="fill:#000000;fill-opacity:1;"><g transform="translate(180.573956, 24.116714)"><path style="stroke:none" d=""/></g></g><g style="fill:#000000;fill-opacity:1;"><g transform="translate(194.510892, 23.873684)"><path style="stroke:none" d="M 2.265625 -18.078125 L 8.359375 0.6875 L 9.921875 0.8125 L 18.765625 -16.734375 L 17.421875 -16.84375 L 10.171875 -2.390625 L 10.0625 -2.40625 L 5.0625 -17.84375 Z M 2.265625 -18.078125 "/></g></g><g style="fill:#000000;fill-opacity:1;"><g transform="translate(217.155489, 25.985197)"><path style="stroke:none" d="M 14.0625 -2.53125 L 15.390625 3.234375 L 17.859375 3.75 L 13.328125 -15.796875 L 12.03125 -16.0625 L 0.765625 0.15625 L 1.921875 0.40625 L 5.28125 -4.375 Z M 13.765625 -3.78125 L 6 -5.40625 L 11.453125 -13.203125 L 11.5625 -13.1875 Z M 13.765625 -3.78125 "/></g></g><g style="fill:#000000;fill-opacity:1;"><g transform="translate(240.340372, 31.347985)"><path style="stroke:none" d="M 9.578125 -16.03125 L 3.953125 1.28125 L 6.21875 2.015625 L 11.84375 -15.296875 Z M 9.578125 -16.03125 "/></g></g><g style="fill:#000000;fill-opacity:1;"><g transform="translate(255.066401, 36.210338)"><path style="stroke:none" d="M 2.859375 1.265625 L 8.8125 3.890625 C 9.882812 4.359375 10.84375 4.613281 11.6875 4.65625 C 12.539062 4.707031 13.285156 4.609375 13.921875 4.359375 C 14.566406 4.117188 15.113281 3.757812 15.5625 3.28125 C 16.007812 2.800781 16.359375 2.28125 16.609375 1.71875 C 17.003906 0.8125 17.125 0.00390625 16.96875 -0.703125 C 16.820312 -1.421875 16.539062 -2.039062 16.125 -2.5625 C 15.71875 -3.082031 15.25 -3.515625 14.71875 -3.859375 C 14.1875 -4.210938 13.753906 -4.472656 13.421875 -4.640625 L 13.46875 -4.75 C 14.019531 -4.507812 14.585938 -4.382812 15.171875 -4.375 C 15.765625 -4.375 16.320312 -4.460938 16.84375 -4.640625 C 17.363281 -4.816406 17.832031 -5.082031 18.25 -5.4375 C 18.675781 -5.789062 19 -6.21875 19.21875 -6.71875 C 19.414062 -7.164062 19.519531 -7.660156 19.53125 -8.203125 C 19.539062 -8.742188 19.429688 -9.289062 19.203125 -9.84375 C 18.984375 -10.394531 18.625 -10.929688 18.125 -11.453125 C 17.625 -11.972656 16.96875 -12.410156 16.15625 -12.765625 L 10.203125 -15.390625 Z M 5.46875 1.171875 L 8.6875 -6.09375 L 11.3125 -4.9375 C 12.09375 -4.59375 12.71875 -4.191406 13.1875 -3.734375 C 13.664062 -3.285156 14.015625 -2.800781 14.234375 -2.28125 C 14.460938 -1.769531 14.5625 -1.242188 14.53125 -0.703125 C 14.507812 -0.171875 14.390625 0.347656 14.171875 0.859375 C 13.921875 1.410156 13.601562 1.851562 13.21875 2.1875 C 12.832031 2.53125 12.40625 2.78125 11.9375 2.9375 C 11.46875 3.09375 10.972656 3.144531 10.453125 3.09375 C 9.941406 3.050781 9.429688 2.914062 8.921875 2.6875 Z M 9.15625 -7.15625 L 11.90625 -13.390625 L 14.8125 -12.109375 C 15.425781 -11.835938 15.910156 -11.515625 16.265625 -11.140625 C 16.628906 -10.773438 16.890625 -10.390625 17.046875 -9.984375 C 17.203125 -9.578125 17.257812 -9.164062 17.21875 -8.75 C 17.175781 -8.332031 17.070312 -7.9375 16.90625 -7.5625 C 16.707031 -7.101562 16.429688 -6.710938 16.078125 -6.390625 C 15.722656 -6.078125 15.316406 -5.847656 14.859375 -5.703125 C 14.410156 -5.566406 13.941406 -5.507812 13.453125 -5.53125 C 12.972656 -5.5625 12.492188 -5.6875 12.015625 -5.90625 Z M 9.15625 -7.15625 "/></g></g><g style="fill:#000000;fill-opacity:1;"><g transform="translate(274.928206, 45.136654)"><path style="stroke:none" d="M 9.390625 -4.890625 L 18.6875 0.78125 L 13.984375 8.515625 L 16.015625 9.734375 L 25.46875 -5.8125 L 23.4375 -7.03125 L 19.3125 -0.234375 L 10.015625 -5.90625 L 14.140625 -12.703125 L 12.125 -13.921875 L 2.671875 1.625 L 4.6875 2.84375 Z M 9.390625 -4.890625 "/></g></g><g style="fill:#000000;fill-opacity:1;"><g transform="translate(297.274309, 59.199092)"><path style="stroke:none" d="M 13.65625 4.1875 L 12.21875 9.921875 L 14.171875 11.5 L 19.0625 -7.953125 L 18.046875 -8.78125 L 0.609375 0.5 L 1.53125 1.234375 L 6.6875 -1.46875 Z M 13.953125 2.921875 L 7.8125 -2.078125 L 16.21875 -6.5 L 16.3125 -6.4375 Z M 13.953125 2.921875 "/></g></g><g style="fill:#000000;fill-opacity:1;"><g transform="translate(315.43135, 74.353252)"><path style="stroke:none" d="M 13.703125 -12.015625 L 5.796875 6.0625 L 6.875 7.1875 L 25.140625 -0.046875 L 24.203125 -1.03125 L 9.203125 4.96875 L 9.125 4.890625 L 15.640625 -9.984375 Z M 13.703125 -12.015625 "/></g></g><g style="fill:#000000;fill-opacity:1;"><g transform="translate(106.447372, 349.179328)"><path style="stroke:none" d="M 9.140625 -4.046875 L 7.3125 -4.953125 L 6.21875 -3.28125 L 8.046875 -2.375 Z M 12.59375 -2.328125 L 10.796875 -3.21875 L 9.6875 -1.5625 L 11.28125 -0.765625 L 10.46875 0.875 L 8.65625 -0.015625 L 6.46875 3.3125 L 4.953125 2.296875 L 7.015625 -0.828125 L 5.1875 -1.75 L 2.96875 1.578125 L 1.46875 0.5625 L 3.546875 -2.59375 L 1.90625 -3.421875 L 2.703125 -5.03125 L 4.578125 -4.09375 L 5.6875 -5.765625 L 4.03125 -6.59375 L 4.84375 -8.203125 L 6.703125 -7.28125 L 8.765625 -10.40625 L 10.265625 -9.40625 L 8.3125 -6.46875 L 10.15625 -5.5625 L 12.21875 -8.703125 L 13.71875 -7.6875 L 11.796875 -4.75 L 13.40625 -3.9375 Z M 12.59375 -2.328125 "/></g></g><g style="fill:#000000;fill-opacity:1;"><g transform="translate(124.711126, 357.61962)"><path style="stroke:none" d="M 9.71875 -7.5 L 6.234375 2.234375 L 3.5625 1.28125 L 7.046875 -8.453125 L 3.578125 -9.703125 L 4.453125 -12.140625 L 14.0625 -8.703125 L 13.1875 -6.265625 Z M 9.71875 -7.5 "/></g></g><g style="fill:#000000;fill-opacity:1;"><g transform="translate(143.821493, 363.860615)"><path style="stroke:none" d="M 10.515625 -2.453125 L 9.453125 2.171875 L 6.6875 1.53125 L 7.75 -3.09375 C 7.863281 -3.570312 7.847656 -3.957031 7.703125 -4.25 C 7.566406 -4.550781 7.285156 -4.753906 6.859375 -4.859375 C 6.421875 -4.953125 6.003906 -4.832031 5.609375 -4.5 C 5.210938 -4.175781 4.953125 -3.738281 4.828125 -3.1875 L 3.890625 0.890625 L 1.109375 0.25 L 4.296875 -13.640625 L 7.078125 -13 L 5.546875 -6.28125 C 5.898438 -6.570312 6.316406 -6.773438 6.796875 -6.890625 C 7.273438 -7.003906 7.78125 -7 8.3125 -6.875 C 9.414062 -6.625 10.125 -6.097656 10.4375 -5.296875 C 10.75 -4.503906 10.773438 -3.554688 10.515625 -2.453125 Z M 10.515625 -2.453125 "/></g></g><g style="fill:#000000;fill-opacity:1;"><g transform="translate(163.689915, 367.844814)"><path style="stroke:none" d="M 4.25 -4.765625 L 7.96875 -4.359375 C 7.96875 -4.359375 7.960938 -4.4375 7.953125 -4.59375 C 7.941406 -4.757812 7.882812 -4.945312 7.78125 -5.15625 C 7.6875 -5.375 7.519531 -5.578125 7.28125 -5.765625 C 7.050781 -5.953125 6.722656 -6.070312 6.296875 -6.125 C 5.847656 -6.164062 5.488281 -6.117188 5.21875 -5.984375 C 4.957031 -5.847656 4.753906 -5.6875 4.609375 -5.5 C 4.472656 -5.3125 4.378906 -5.140625 4.328125 -4.984375 C 4.273438 -4.835938 4.25 -4.765625 4.25 -4.765625 Z M 10.609375 -3.25 C 10.597656 -3.15625 10.582031 -3.066406 10.5625 -2.984375 C 10.550781 -2.910156 10.539062 -2.832031 10.53125 -2.75 L 4.078125 -3.4375 C 4.046875 -3.113281 4.082031 -2.789062 4.1875 -2.46875 C 4.300781 -2.144531 4.484375 -1.867188 4.734375 -1.640625 C 4.984375 -1.410156 5.289062 -1.28125 5.65625 -1.25 C 6.164062 -1.1875 6.578125 -1.273438 6.890625 -1.515625 C 7.203125 -1.753906 7.378906 -2.023438 7.421875 -2.328125 L 10.3125 -2.015625 C 9.957031 -0.953125 9.34375 -0.191406 8.46875 0.265625 C 7.59375 0.722656 6.601562 0.894531 5.5 0.78125 C 4.539062 0.675781 3.710938 0.40625 3.015625 -0.03125 C 2.328125 -0.46875 1.8125 -1.03125 1.46875 -1.71875 C 1.132812 -2.40625 1.019531 -3.191406 1.125 -4.078125 C 1.207031 -4.941406 1.492188 -5.679688 1.984375 -6.296875 C 2.472656 -6.910156 3.097656 -7.359375 3.859375 -7.640625 C 4.628906 -7.929688 5.484375 -8.023438 6.421875 -7.921875 C 7.273438 -7.828125 8.035156 -7.578125 8.703125 -7.171875 C 9.367188 -6.773438 9.875 -6.242188 10.21875 -5.578125 C 10.570312 -4.921875 10.703125 -4.144531 10.609375 -3.25 Z M 10.609375 -3.25 "/></g></g><g style="fill:#000000;fill-opacity:1;"><g transform="translate(184.210592, 369.466876)"><path style="stroke:none" d="M 6.265625 -5.25 L 6.203125 -9.21875 L 3.625 -5.21875 Z M 10.96875 -2.703125 L 9.140625 -2.671875 L 9.171875 -0.140625 L 6.34375 -0.09375 L 6.3125 -2.625 L -0.59375 -2.515625 L 6.40625 -13.015625 L 8.96875 -13.0625 L 9.09375 -5.296875 L 10.921875 -5.328125 Z M 10.96875 -2.703125 "/></g></g><g style="fill:#000000;fill-opacity:1;"><g transform="translate(205.359504, 368.51933)"><path style="stroke:none" d="M 8.203125 -3.71875 L 8.546875 -1.15625 L 1.125 -0.15625 L -0.59375 -12.96875 L 6.828125 -13.96875 L 7.171875 -11.40625 L 2.578125 -10.78125 L 2.921875 -8.234375 L 7.328125 -8.828125 L 7.671875 -6.265625 L 3.265625 -5.671875 L 3.609375 -3.09375 Z M 8.203125 -3.71875 "/></g></g><g style="fill:#000000;fill-opacity:1;"><g transform="translate(224.528326, 365.379756)"><path style="stroke:none" d="M 7.234375 -10.453125 L 6.171875 -1.546875 L 2.90625 -0.734375 L -2.234375 -8.078125 L 0.546875 -8.78125 L 3.953125 -3.453125 L 4.421875 -9.75 Z M 7.234375 -10.453125 "/></g></g><g style="fill:#000000;fill-opacity:1;"><g transform="translate(242.868722, 360.239845)"><path style="stroke:none" d="M 1.65625 -6.171875 L 5.15625 -7.5 C 5.15625 -7.5 5.109375 -7.566406 5.015625 -7.703125 C 4.929688 -7.835938 4.796875 -7.976562 4.609375 -8.125 C 4.429688 -8.269531 4.191406 -8.375 3.890625 -8.4375 C 3.597656 -8.5 3.253906 -8.453125 2.859375 -8.296875 C 2.441406 -8.140625 2.144531 -7.941406 1.96875 -7.703125 C 1.789062 -7.460938 1.675781 -7.222656 1.625 -6.984375 C 1.582031 -6.753906 1.578125 -6.5625 1.609375 -6.40625 C 1.640625 -6.25 1.65625 -6.171875 1.65625 -6.171875 Z M 8 -7.703125 C 8.03125 -7.609375 8.054688 -7.519531 8.078125 -7.4375 C 8.109375 -7.363281 8.140625 -7.285156 8.171875 -7.203125 L 2.09375 -4.90625 C 2.207031 -4.601562 2.382812 -4.332031 2.625 -4.09375 C 2.875 -3.851562 3.160156 -3.6875 3.484375 -3.59375 C 3.804688 -3.507812 4.132812 -3.53125 4.46875 -3.65625 C 4.945312 -3.84375 5.273438 -4.113281 5.453125 -4.46875 C 5.628906 -4.820312 5.671875 -5.144531 5.578125 -5.4375 L 8.296875 -6.46875 C 8.460938 -5.351562 8.253906 -4.394531 7.671875 -3.59375 C 7.097656 -2.789062 6.289062 -2.191406 5.25 -1.796875 C 4.351562 -1.453125 3.5 -1.316406 2.6875 -1.390625 C 1.875 -1.460938 1.160156 -1.726562 0.546875 -2.1875 C -0.0664062 -2.65625 -0.535156 -3.3125 -0.859375 -4.15625 C -1.160156 -4.957031 -1.226562 -5.742188 -1.0625 -6.515625 C -0.90625 -7.285156 -0.550781 -7.972656 0 -8.578125 C 0.5625 -9.179688 1.28125 -9.648438 2.15625 -9.984375 C 2.957031 -10.285156 3.742188 -10.40625 4.515625 -10.34375 C 5.285156 -10.28125 5.976562 -10.03125 6.59375 -9.59375 C 7.207031 -9.164062 7.675781 -8.535156 8 -7.703125 Z M 8 -7.703125 "/></g></g><g style="fill:#000000;fill-opacity:1;"><g transform="translate(261.816114, 352.400876)"><path style="stroke:none" d="M 2.390625 -8.25 C 2.078125 -8.082031 1.835938 -7.84375 1.671875 -7.53125 C 1.515625 -7.21875 1.429688 -6.878906 1.421875 -6.515625 C 1.421875 -6.160156 1.492188 -5.835938 1.640625 -5.546875 L 3.546875 -1.8125 L 1.015625 -0.515625 L -2.78125 -7.984375 L -0.25 -9.28125 L 0.203125 -8.375 C 0.265625 -8.738281 0.398438 -9.113281 0.609375 -9.5 C 0.828125 -9.882812 1.164062 -10.195312 1.625 -10.4375 C 1.738281 -10.5 1.875 -10.550781 2.03125 -10.59375 C 2.195312 -10.644531 2.347656 -10.671875 2.484375 -10.671875 L 3.65625 -8.375 L 3.625 -8.359375 C 3.414062 -8.441406 3.203125 -8.46875 2.984375 -8.4375 C 2.773438 -8.40625 2.578125 -8.34375 2.390625 -8.25 Z M 2.390625 -8.25 "/></g></g><g style="fill:#000000;fill-opacity:1;"><g transform="translate(102.186446, 208.48424)"><path style="stroke:none" d="M 0 -85.578125 L 0 -86.4375 L 24.03125 -86.4375 L 24.03125 -85.578125 L 22.125 -85.578125 C 20.914062 -85.578125 19.832031 -85.242188 18.875 -84.578125 C 17.925781 -83.910156 17.453125 -82.710938 17.453125 -80.984375 C 17.453125 -80.003906 17.84375 -78.519531 18.625 -76.53125 C 19.40625 -74.550781 20.457031 -72.265625 21.78125 -69.671875 C 23.101562 -67.078125 24.554688 -64.320312 26.140625 -61.40625 C 27.734375 -58.5 29.320312 -55.617188 30.90625 -52.765625 C 32.488281 -49.910156 33.984375 -47.226562 35.390625 -44.71875 C 36.804688 -42.21875 37.945312 -40.101562 38.8125 -38.375 C 40.019531 -40.625 41.488281 -43.363281 43.21875 -46.59375 C 44.945312 -49.820312 46.734375 -53.222656 48.578125 -56.796875 C 50.421875 -60.367188 52.160156 -63.820312 53.796875 -67.15625 C 55.441406 -70.5 56.769531 -73.453125 57.78125 -76.015625 C 58.789062 -78.585938 59.296875 -80.445312 59.296875 -81.59375 C 59.296875 -83.15625 58.789062 -84.207031 57.78125 -84.75 C 56.769531 -85.300781 55.660156 -85.578125 54.453125 -85.578125 L 52.203125 -85.578125 L 52.203125 -86.4375 L 70.703125 -86.4375 L 70.703125 -85.578125 C 68.515625 -85.578125 66.6875 -84.828125 65.21875 -83.328125 C 63.75 -81.828125 62.207031 -79.488281 60.59375 -76.3125 C 58.976562 -73.144531 56.847656 -69.054688 54.203125 -64.046875 C 52.410156 -60.703125 50.535156 -57.269531 48.578125 -53.75 C 46.617188 -50.238281 44.789062 -46.972656 43.09375 -43.953125 C 41.394531 -40.929688 40.050781 -38.46875 39.0625 -36.5625 L 39.0625 -24.03125 C 39.0625 -18.382812 39.207031 -13.859375 39.5 -10.453125 C 39.789062 -7.054688 40.5 -4.609375 41.625 -3.109375 C 42.75 -1.609375 44.546875 -0.859375 47.015625 -0.859375 L 47.015625 0 L 23.6875 0 L 23.6875 -0.859375 C 26.164062 -0.859375 27.960938 -1.609375 29.078125 -3.109375 C 30.203125 -4.609375 30.910156 -7.054688 31.203125 -10.453125 C 31.492188 -13.859375 31.640625 -18.382812 31.640625 -24.03125 L 31.640625 -36.5625 C 30.660156 -38.46875 29.316406 -40.929688 27.609375 -43.953125 C 25.910156 -46.972656 24.082031 -50.238281 22.125 -53.75 C 20.164062 -57.269531 18.296875 -60.703125 16.515625 -64.046875 C 13.921875 -69.054688 11.800781 -73.144531 10.15625 -76.3125 C 8.507812 -79.488281 6.953125 -81.828125 5.484375 -83.328125 C 4.015625 -84.828125 2.1875 -85.578125 0 -85.578125 Z M 0 -85.578125 "/></g></g><g style="fill:#000000;fill-opacity:1;"><g transform="translate(198.495152, 245.872553)"><path style="stroke:none" d="M 0 -80.671875 L 0 -81.484375 L 26.734375 -81.484375 L 26.734375 -80.671875 C 23.847656 -80.671875 21.65625 -80.289062 20.15625 -79.53125 C 18.664062 -78.769531 17.703125 -77.707031 17.265625 -76.34375 C 16.835938 -74.988281 16.785156 -73.414062 17.109375 -71.625 C 17.429688 -69.832031 17.972656 -67.90625 18.734375 -65.84375 L 40.734375 -7.828125 C 44.109375 -17.441406 47.613281 -27.054688 51.25 -36.671875 C 54.894531 -46.285156 58.289062 -55.925781 61.4375 -65.59375 C 61.976562 -67.226562 62.332031 -68.925781 62.5 -70.6875 C 62.664062 -72.445312 62.472656 -74.070312 61.921875 -75.5625 C 61.378906 -77.0625 60.347656 -78.285156 58.828125 -79.234375 C 57.304688 -80.191406 55.109375 -80.671875 52.234375 -80.671875 L 52.234375 -81.484375 L 75.296875 -81.484375 L 75.296875 -80.671875 C 72.796875 -80.671875 70.742188 -79.554688 69.140625 -77.328125 C 67.535156 -75.097656 65.863281 -71.726562 64.125 -67.21875 L 38.046875 1.625 L 37.234375 1.625 L 11.15625 -67.21875 C 9.363281 -71.726562 7.679688 -75.097656 6.109375 -77.328125 C 4.535156 -79.554688 2.5 -80.671875 0 -80.671875 Z M 0 -80.671875 "/></g></g></g></svg>